<?xml version="1.0" encoding="utf-8"?>

<svg xmlns="http://www.w3.org/2000/svg" xmlns:xlink="http://www.w3.org/1999/xlink">

	<symbol viewBox="0 0 61 61" id="call-center-agent">
		<path d="M31.379 12.593h3.574c0 3.196 2.379 5.846 5.459 6.275v-2.046c0-5.465-4.446-9.912-9.912-9.912-5.465 0-9.912 4.447-9.912 9.912v2.109h4.453a6.345 6.345 0 006.338-6.338z"/>
		<path d="M13.742 30.45h3.37a15.099 15.099 0 01-.098-1.72V16.822c0-7.436 6.05-13.486 13.486-13.486 7.436 0 13.486 6.05 13.486 13.486V28.73a15.1 15.1 0 01-.098 1.72h3.37a4.871 4.871 0 004.866-4.866v-5.422a4.871 4.871 0 00-4.667-4.86C46.581 6.718 39.31 0 30.5 0S14.42 6.719 13.543 15.301a4.871 4.871 0 00-4.667 4.861v5.422a4.871 4.871 0 004.866 4.866z"/>
		<path d="M30.5 39.396c3.042 0 5.769-1.483 7.589-3.813H32.55V32.01h7.381c.311-1.033.48-2.135.48-3.279v-6.264a9.916 9.916 0 01-7.246-4.201 9.908 9.908 0 01-8.125 4.24h-4.453v6.225c0 5.881 4.447 10.666 9.912 10.666z"/>
		<path d="M40.539 42.997v-4.77c-2.471 2.91-6.056 4.743-10.039 4.743-3.957 0-7.522-1.81-9.99-4.685v4.706l-.018.006c2.346 1.825 6.238 4.319 9.992 4.319 3.771 0 7.69-2.493 10.055-4.32z"/>
		<path d="M56.494 48.237l-11.95-3.917c-2.022 1.803-7.95 6.57-14.06 6.57-6.117 0-11.999-4.778-13.999-6.58l-11.98 3.927A6.531 6.531 0 000 54.456V61h12.306v-6.195h3.574V61h29.24v-6.195h3.575V61H61v-6.544a6.53 6.53 0 00-4.506-6.219z"/>
	</symbol>

	<symbol viewBox="0 0 31 31" id="cancel">
		<path d="M15.5 0a15.5 15.5 0 100 31 15.5 15.5 0 000-31zm0 30a14.5 14.5 0 110-29 14.5 14.5 0 010 29z"/>
		<path d="M22.6 8.4a.5.5 0 00-.7 0l-6.4 6.4-6.4-6.4a.5.5 0 10-.7.7l6.4 6.4-6.4 6.4a.5.5 0 10.7.7l6.4-6.4 6.4 6.4a.5.5 0 00.7-.7l-6.4-6.4 6.4-6.4c.2-.2.2-.5 0-.7z"/>
	</symbol>

	<symbol viewBox="0 0 24 24" id="clock">
		<path d="M12 0a12 12 0 100 24 12 12 0 000-24zm.86 12c0 .47-.39.86-.86.86H5.14a.86.86 0 110-1.72h6v-6a.86.86 0 111.72 0V12z"/>
	</symbol>

	<symbol viewBox="0 0 61 61" id="courier">
		<path d="M39.08 45.75h-2.86v-1.9h5.55a2.86 2.86 0 01-2.7 1.9zM20.02 11.44H6.67v-.96a6.67 6.67 0 1113.35 0v.96zm14.29 28.59H30.5v9.53h3.81v-9.53z"/>
		<path d="M28.6 39.08v.95h-1.91V20.97h8.58v8.58a.95.95 0 001.48.79l2.33-1.56 2.33 1.56a.95.95 0 001.48-.8v-8.57h8.58v20.97H36.22v-2.86a.95.95 0 00-.95-.95h-5.72a.95.95 0 00-.96.95zm-16.2-14.3h.94v1.9h-3.8v-2.85a.95.95 0 00-.54-.85 2.48 2.48 0 01-1.38-2.24v-7.4h11.44v4.77a4.77 4.77 0 01-4.76 4.77h-1.9a.95.95 0 100 1.9zm-8.59 8.58a4.77 4.77 0 014.77-4.77h7.62a4.77 4.77 0 014.77 4.77v6.67H18.1a.95.95 0 01-.95-.95v-3.81a4.77 4.77 0 10-9.54 0v5.71a8.59 8.59 0 008.58 8.58h4.77v3.81H3.8V33.36z"/>
		<path d="M39.6 26.85a.95.95 0 00-1.05 0l-1.38.92v-6.8h3.81v6.8l-1.37-.92zM20.97 55.28H3.8v1.9h17.16v-1.9zM9.53 40.98v-5.71a2.86 2.86 0 015.72 0v3.8a2.86 2.86 0 002.86 2.87h10.48v5.72H16.2a6.68 6.68 0 01-6.67-6.68zm16.2-29.54h-4.76v1.9h4.76a.95.95 0 000-1.9z"/>
	</symbol>

	<symbol viewBox="0 0 90 29" id="delivery-club-logo"><g fill-rule="evenodd" clip-path="url(#eclip0)" clip-rule="evenodd">
		<path d="M15.463 22.437c-.048-.45.226-2.664.226-2.664s.549.092 1.079.15c.53.059 1.382.105 1.382.105s-.46 1.661-.192 2.04c.617.877 3.99 3.041 4.763 3.91.39.386.784.76 1.267 1.098.341.29 1.443.323 1.733.613.193.21.43.82.311.93-.08.075-1.75.112-2.044.06-.319 0-.7-.308-.7-.308s-.238.248-.567.073c-.58-.289-.493-.885-.832-1.368-.193-.193-3.028-2.055-4.855-3.084-1.567-.883-1.498-.87-1.57-1.555zM4.191 16.705c-.34-.301-1.595.772-1.953.694-.359-.077-.008-.963-.326-.91-.43.074-.546 1.081-.933 1.16-.624.234-.979-.7-.979-1.814 0-1.115.397-2.329 1.749-3.106 1.351-.778 3.353-.976 4.906-.456 1.474-.788 3.413-3.075 7.731-3.182 4.32-.107 5.936 2.049 6.854 1.533.918-.516 1.229-1.68 1.029-2.55-.383-1.664-1.125-2.57-1.718-4.052-.373-.93-.394-2.16.076-3.06.21-.401.722-.868 1.494-.954.772-.086.975.562 1.515.738.54.177 1.695.286 1.785.697.09.41-1.295.734-1.61.7-.735-.078-1.199.416-1.159 1.29.048 1.11.309 1.506 1.334 3.087 1.024 1.58 1.015 4.209-.294 6.042-.412.536-.852.991-1.143 1.604-.235.49 0-.498 0 1.46 0 1.959-.988 2.902-2.28 3.315-1.739.558-3.24.35-4.776.168-2.126-.25-3.789-.22-4.656 0-.753.192-3.107 1.52-3.396 2.137-.154.333-.985 3.802-1.137 4.564-.063.314-.027.938-.173 1.216-.159.31-2.096 1.53-2.754 1.78-.303.116-.915.264-.987.158-.429-.493-.427-.607.818-1.505-.435-.902.82-1.122 1.19-1.567.402-.483 1.133-5.747 1.383-6.433.25-.686 1.229-.922 1.625-1.532-.187-.216-.447-.1-1.134.092-.59.166-1.82.604-2.081.385-.261-.22.34-1.397 0-1.699zm33.872-3.107H34.07V3.412h3.978c3.161 0 5.354 2.03 5.354 5.085 0 3.084-2.193 5.1-5.339 5.1zm-.015-1.91c1.996 0 3.161-1.45 3.161-3.19 0-1.787-1.089-3.176-3.146-3.176h-1.845v6.367h1.83zm10.27 2.093c-2.224 0-3.903-1.512-3.903-3.879 0-2.137 1.573-3.863 3.782-3.863 2.192 0 3.66 1.65 3.66 4.047v.458h-5.43c.136.9.862 1.649 2.102 1.649.62 0 1.467-.26 1.936-.718l.862 1.283c-.726.672-1.875 1.023-3.01 1.023zM50.01 9.2c-.06-.703-.544-1.574-1.815-1.574-1.194 0-1.709.84-1.784 1.573h3.6zm5.294 4.58c-1.346 0-2.057-.703-2.057-2.031V3.413h1.92v7.818c0 .473.243.824.666.824.288 0 .56-.107.666-.229l.408 1.481c-.287.26-.817.474-1.603.474zm3.403-8.352c-.62 0-1.134-.52-1.134-1.16a1.141 1.141 0 112.284 0c0 .64-.515 1.16-1.15 1.16zm.968 8.168h-1.921V6.224h1.92v7.375zm5.868 0h-2.072l-2.934-7.374h2.057l1.906 5.13 1.92-5.13h2.057l-2.934 7.375zm7.23.184c-2.224 0-3.903-1.512-3.903-3.879 0-2.137 1.573-3.863 3.782-3.863 2.192 0 3.66 1.65 3.66 4.047v.458h-5.43c.136.9.862 1.649 2.102 1.649.62 0 1.467-.26 1.936-.718l.862 1.283c-.726.672-1.875 1.023-3.01 1.023zm1.693-4.58c-.06-.703-.544-1.574-1.814-1.574-1.195 0-1.71.84-1.785 1.573h3.6zm5.158 4.396h-1.921V6.224h1.92v.992c.53-.641 1.422-1.176 2.33-1.176v1.894a2.43 2.43 0 00-.53-.046c-.635 0-1.482.366-1.8.84v4.87zm6.488 2.993c-1.225 0-2.208-.351-3.055-1.1l.862-1.389c.53.642 1.422.901 2.193.901 1.24 0 1.966-.855 1.966-1.893v-.764a3.46 3.46 0 01-2.57 1.115c-1.604 0-2.36-.886-2.36-2.32V6.222h1.92v4.153c0 1.023.53 1.359 1.347 1.359.74 0 1.33-.413 1.663-.84V6.223H90v6.886c0 2.214-1.558 3.481-3.887 3.481zM38.8 27.662c-3.04 0-5.384-2.138-5.384-5.268 0-3.146 2.344-5.268 5.384-5.268 2.208 0 3.494 1.206 4.205 2.489l-1.846.916c-.423-.825-1.33-1.481-2.359-1.481-1.845 0-3.176 1.42-3.176 3.344s1.331 3.344 3.176 3.344c1.029 0 1.936-.657 2.36-1.482l1.845.901c-.711 1.268-1.997 2.505-4.205 2.505zm7.672 0c-1.346 0-2.057-.703-2.057-2.031v-8.337h1.921v7.818c0 .473.242.824.666.824.287 0 .56-.107.665-.229l.408 1.481c-.287.26-.816.474-1.603.474zm9.302-.184h-1.921v-.931a3.46 3.46 0 01-2.571 1.114c-1.603 0-2.36-.885-2.36-2.32v-5.238h1.921v4.474c0 1.023.53 1.36 1.346 1.36.741 0 1.331-.413 1.664-.84v-4.994h1.92v7.375zm3.826-2.366c.333.473 1.029.824 1.664.824 1.104 0 1.845-.87 1.845-2.153 0-1.267-.741-2.137-1.845-2.137-.635 0-1.331.366-1.664.855v2.61zm0 2.366h-1.92V17.294h1.92v3.756a2.762 2.762 0 012.254-1.13c1.86 0 3.236 1.466 3.236 3.863 0 2.474-1.391 3.878-3.236 3.878-.877 0-1.68-.396-2.254-1.13v.947z"/></g>
		<defs><clipPath id="eclip0"><rect width="90" height="29" rx="6"/></clipPath></defs>
	</symbol>

	<symbol viewBox="0 0 73 69" id="delivery-man">
		<path d="M35.36 14.016a5.922 5.922 0 00-3.606 1.216 5.36 5.36 0 00-1.984 3.096h11.18a5.36 5.36 0 00-1.984-3.095 5.922 5.922 0 00-3.606-1.217zm7.95 22.629h-.012l-5.657.011-2.361 4.712a1.09 1.09 0 01-.351.446 1.185 1.185 0 01-1.127.16 1.122 1.122 0 01-.473-.337l-4.22-4.98h-6.297a3.535 3.535 0 00-2.416.95 3.157 3.157 0 00-1.005 2.284v4.312h5.703c.302 0 .592.114.806.316.214.202.334.476.334.762v5.39h8.418l.833-1.562a1.09 1.09 0 01.418-.434c.179-.105.386-.16.597-.16h3.422v-8.624c0-.286.12-.56.334-.763.214-.202.504-.316.806-.316h5.464a3.265 3.265 0 00-1.245-1.565 3.565 3.565 0 00-1.971-.602zm-13.654-9.153c0 1.287.541 2.52 1.504 3.43a5.288 5.288 0 003.63 1.422 5.288 5.288 0 003.629-1.421c.962-.91 1.503-2.144 1.503-3.43v-7.009H29.656v7.008z"/>
		<path d="M19.39 46.36v9.703h22.813V51.75c0-.286-.12-.56-.334-.762a1.175 1.175 0 00-.806-.316h-3.856l-.833 1.563a1.09 1.09 0 01-.417.434c-.18.105-.387.16-.598.16H25.094c-.303 0-.593-.114-.807-.317a1.05 1.05 0 01-.334-.762v-5.39h-4.562zm34.22 17.25v-5.391H14.827v5.39c0 .286.12.56.334.763.214.202.504.316.807.316h36.5c.302 0 .592-.114.806-.316a1.05 1.05 0 00.334-.763zm-18.25-1.08h-2.282a1.17 1.17 0 01-.806-.316 1.05 1.05 0 01-.334-.762c0-.286.12-.56.334-.762.214-.202.504-.316.806-.316h2.281c.303 0 .593.114.807.316.214.202.334.476.334.762 0 .286-.12.56-.334.762a1.175 1.175 0 01-.807.316z"/>
		<path d="M48.899 38.813h4.71V10.78H14.83v45.282h2.28V39.89c0-1.43.601-2.801 1.67-3.812 1.07-1.011 2.52-1.579 4.034-1.579h5.703v-3.288a6.676 6.676 0 01-1.141-3.72v-.539h-1.14a2.357 2.357 0 01-1.612-.633 2.105 2.105 0 01-.67-1.523V22.64a2.105 2.105 0 01.67-1.523 2.357 2.357 0 011.611-.634h1.141v-1.078c.015-1.898.787-3.72 2.16-5.105 1.374-1.384 3.25-2.228 5.252-2.364 2.003-.136 3.986.446 5.555 1.63 1.569 1.185 2.608 2.885 2.91 4.761h4.654c.303 0 .593.114.807.316.214.202.334.476.334.762 0 .286-.12.56-.334.763a1.175 1.175 0 01-.807.315h-5.703v7.008a6.737 6.737 0 01-1.245 3.887 7.337 7.337 0 01-3.317 2.582v.539l5.634-.01h.035a5.93 5.93 0 013.607 1.222 5.367 5.367 0 011.982 3.1z"/>
		<path d="M30.797 33.39v1.81l3.08 3.645 1.482-3.58v-.797c-.189.021-.38.032-.57.032a7.664 7.664 0 01-3.992-1.11zm11.406 7.579h15.969v2.156H42.203v-2.156zm15.969 4.312H42.203v3.429a3.42 3.42 0 011.649 1.18c.408.543.629 1.193.632 1.86v4.313h13.688V45.28zM26.234 22.64h1.141v2.157h-1.14V22.64zM53.61 5.39c0-.285-.12-.56-.335-.762a1.175 1.175 0 00-.806-.316h-36.5c-.303 0-.593.114-.807.316a1.05 1.05 0 00-.334.763v3.234H53.61V5.391z"/>
	</symbol>

	<symbol viewBox="0 0 24 24" id="discussion"><g>
		<path d="M15.618 5.392A8.209 8.209 0 008.25.797C3.701.797 0 4.477 0 9c0 1.229.264 2.407.785 3.506l-.771 3.856a.704.704 0 00.826.827l3.903-.771c.526.249 1.07.439 1.628.57-1.252-5.932 3.244-11.5 9.247-11.596z"/>
		<path d="M23.215 18.505a8.18 8.18 0 00.352-.867h-.026c1.756-5.153-1.936-10.568-7.386-10.831v-.001c-4.689-.216-8.585 3.538-8.585 8.193 0 4.52 3.673 8.197 8.191 8.203a8.112 8.112 0 003.496-.785c4.275.845 3.941.785 4.04.785a.703.703 0 00.69-.84l-.772-3.857z"/></g>
	</symbol>

	<symbol viewBox="0 0 9 9" id="drop-down"><g clip-path="url(#hclip0)">
		<path d="M4.5 6.09L.6 2.18a.35.35 0 00-.5.49l4.16 4.15c.13.14.35.14.49 0L8.9 2.67a.35.35 0 00-.49-.5L4.51 6.1z"/></g>
		<defs><clipPath id="hclip0">
		<path d="M0 0h9v9H0z" transform="rotate(-90 4.5 4.5)"/></clipPath></defs>
	</symbol>

	<symbol viewBox="0 0 66 66" id="food-delivery">
		<path d="M20.625 23.719c-5.117 0-9.281 4.164-9.281 9.281v1.031h18.562V33c0-5.117-4.164-9.281-9.281-9.281zm0 4.125a5.178 5.178 0 00-4.467 2.579l-1.785-1.033a7.247 7.247 0 016.252-3.609v2.063z"/>
		<path d="M53.43 26.813c.791.951 2.04 1.677 3.289 1.947v-8.02c-2.052.444-4.125 2.11-4.125 4.01h-8.25a1.032 1.032 0 000 2.062h4.125v25.782H36.094v-1.031c0-6.255-5.09-11.344-11.344-11.344h14.438a1.032 1.032 0 000-2.063h-2.063V16.5h-33v21.656H3.094a1.032 1.032 0 000 2.063h3.094l5.023 5.023a11.273 11.273 0 00-1.93 6.32v4.126h6.188a7.219 7.219 0 1014.437 0h16.5a7.219 7.219 0 0014.438 0h1.031v-6.684c0-2.941-1.136-5.692-3.116-7.753a6.193 6.193 0 00-6.165 6.186H50.53c0-3.794 2.58-6.991 6.075-7.95a13.21 13.21 0 01-6.075-11.147v-1.527h2.898zM7.218 34.03H9.28V33c0-5.907 4.54-10.768 10.313-11.291v-2.115h2.062v2.115C27.43 22.232 31.97 27.093 31.97 33v1.031h2.062v2.063H7.22V34.03zM9.28 40.22h11.344a11.313 11.313 0 00-8.018 3.326l-3.326-3.326zM22.688 58.78a3.093 3.093 0 01-3.094-3.094h6.187a3.093 3.093 0 01-3.093 3.094zm9.22-6.187c-.516-4.634-4.452-8.25-9.22-8.25-4.769 0-8.705 3.616-9.22 8.25h-2.072C11.92 46.82 16.78 42.28 22.687 42.28s10.769 4.54 11.292 10.313h-2.071zm24.81 3.094a3.094 3.094 0 11-6.187 0h6.188zM52.595 49.5v2.063H50.53V49.5h2.063zM31.969 12.375h2.062c0-5.686-4.626-10.313-10.312-10.313H6.187v2.063H23.72c4.549 0 8.25 3.701 8.25 8.25z"/>
		<path d="M16.5 6.188V8.25h6.188a4.13 4.13 0 014.125 4.125h2.062a6.194 6.194 0 00-6.188-6.188H16.5zm-4.125 0h2.063V8.25h-2.063V6.187zM2.062 2.063h2.063v2.062H2.062V2.062zM8.25 6.186h2.063V8.25H8.25V6.187z"/>
	</symbol>

	<symbol viewBox="0 0 51 51" id="instagram-logo"><g clip-path="url(#jclip0)">
		<path d="M36.91 16.86a4.54 4.54 0 00-1.1-1.68 4.53 4.53 0 00-1.67-1.1 8.1 8.1 0 00-2.72-.5c-1.55-.07-2.01-.08-5.92-.08s-4.37.01-5.92.08a8.1 8.1 0 00-2.72.5c-.63.24-1.2.61-1.68 1.1a4.54 4.54 0 00-1.1 1.68 8.1 8.1 0 00-.5 2.72c-.07 1.55-.08 2.01-.08 5.92s.01 4.37.08 5.92c.07 1.43.3 2.2.5 2.72.24.63.61 1.2 1.1 1.68.47.49 1.05.86 1.68 1.1.52.2 1.3.43 2.72.5 1.55.07 2.01.08 5.92.08s4.37-.01 5.92-.08a8.1 8.1 0 002.72-.5 4.85 4.85 0 002.77-2.78c.2-.52.44-1.3.5-2.72.08-1.55.1-2.01.1-5.92s-.02-4.37-.1-5.92a8.1 8.1 0 00-.5-2.72zM25.5 33.02a7.52 7.52 0 110-15.04 7.52 7.52 0 010 15.04zm7.82-13.58a1.76 1.76 0 110-3.51 1.76 1.76 0 010 3.51z"/>
		<path d="M30.38 25.5a4.88 4.88 0 11-9.76 0 4.88 4.88 0 019.76 0z"/>
		<path d="M47.32 0H3.68A3.68 3.68 0 000 3.68v43.64A3.68 3.68 0 003.68 51h43.64A3.68 3.68 0 0051 47.32V3.68A3.68 3.68 0 0047.32 0zm-7.27 31.54a10.74 10.74 0 01-.68 3.55 7.49 7.49 0 01-4.28 4.28c-.93.37-2 .61-3.55.68-1.56.08-2.06.1-6.04.1s-4.48-.02-6.04-.1a10.75 10.75 0 01-3.55-.68 7.17 7.17 0 01-2.6-1.69 7.18 7.18 0 01-1.68-2.59c-.37-.93-.61-2-.68-3.55-.08-1.56-.1-2.06-.1-6.04s.02-4.48.1-6.04c.07-1.56.31-2.62.68-3.55.36-.98.94-1.86 1.69-2.6a7.17 7.17 0 012.59-1.68c.93-.37 2-.61 3.55-.68 1.56-.08 2.06-.1 6.04-.1s4.48.02 6.04.1c1.56.07 2.62.31 3.55.68.98.36 1.86.94 2.6 1.69a7.17 7.17 0 011.68 2.59c.37.93.61 2 .68 3.55.08 1.56.1 2.06.1 6.04s-.02 4.48-.1 6.04z"/></g>
		<defs><clipPath id="jclip0">
		<path d="M0 0h51v51H0z"/></clipPath></defs>
	</symbol>

	<symbol viewBox="0 0 24 24" id="map-pin">
		<path d="M12 0a8 8 0 00-7 11.8l6.6 12a.5.5 0 00.8 0l6.6-12A8 8 0 0012 0zm0 12a4 4 0 110-8 4 4 0 010 8z"/>
	</symbol>

	<symbol viewBox="0 0 14 14" id="mobile"><g clip-path="url(#lclip0)">
		<path d="M13.73 11.13l-1.55-1.03-1.38-.92a.61.61 0 00-.82.13l-.86 1.1a.6.6 0 01-.77.16c-.58-.32-1.27-.63-2.78-2.14-1.51-1.51-1.82-2.2-2.14-2.78a.6.6 0 01.16-.77l1.1-.86c.25-.2.31-.55.13-.82l-.89-1.33L2.87.27A.61.61 0 002.05.1L.82.82c-.33.2-.58.51-.68.88-.34 1.23-.4 3.92 3.92 8.24s7.02 4.26 8.24 3.92c.37-.1.68-.35.88-.68l.73-1.22a.61.61 0 00-.18-.83z"/></g>
		<defs><clipPath id="lclip0">
		<path d="M0 0h14v14H0z"/></clipPath></defs>
	</symbol>

	<symbol viewBox="0 0 31 32" id="shopping-basket"><g clip-path="url(#mclip0)">
		<path d="M30.1 11.46h-3.2l-7-8.74a.9.9 0 00-1.42 1.13l6.09 7.6H6.43l6.09-7.6a.9.9 0 10-1.42-1.13l-7 8.74H.9c-.5 0-.9.4-.9.9v1.82c0 .5.4.91.9.91h29.2c.5 0 .9-.4.9-.9v-1.82c0-.5-.4-.91-.9-.91zM5.48 28.96a.9.9 0 00.88.66h18.28a.9.9 0 00.88-.66l3.44-12.05H2.04l3.44 12.05zm14.18-4.03l.9-5.45a.9.9 0 111.8.3l-.9 5.45a.9.9 0 01-1.8-.3zm-5.07-5.3a.9.9 0 111.82 0v5.45a.9.9 0 11-1.82 0v-5.45zm-5.14-.9a.9.9 0 011.04.75l.91 5.45a.9.9 0 11-1.8.3l-.9-5.45a.9.9 0 01.75-1.04z"/></g>
		<defs><clipPath id="mclip0">
		<path d="M0 0h31v31H0z" transform="translate(0 .5)"/></clipPath></defs>
	</symbol>

	<symbol viewBox="0 0 139 139" id="smile">
		<path d="M98.71 85.38a3.02 3.02 0 00-4.27.23A33.47 33.47 0 0169.5 96.7a33.48 33.48 0 01-24.94-11.08 3.02 3.02 0 10-4.5 4.03 39.53 39.53 0 0029.44 13.1c11.27 0 22-4.78 29.45-13.1a3.02 3.02 0 00-.24-4.26z"/>
		<path d="M69.5 0A69.58 69.58 0 000 69.5 69.58 69.58 0 0069.5 139 69.58 69.58 0 00139 69.5 69.58 69.58 0 0069.5 0zm0 132.96c-35 0-63.46-28.47-63.46-63.46 0-35 28.47-63.46 63.46-63.46 35 0 63.46 28.47 63.46 63.46 0 35-28.47 63.46-63.46 63.46z"/>
		<path d="M93.67 48.35c-8.33 0-15.1 6.78-15.1 15.1a3.02 3.02 0 006.04 0 9.08 9.08 0 0118.13 0 3.02 3.02 0 006.04 0c0-8.32-6.78-15.1-15.1-15.1zM54.4 63.46a3.02 3.02 0 006.03 0c0-8.33-6.77-15.11-15.1-15.11s-15.11 6.78-15.11 15.1a3.02 3.02 0 006.04 0 9.08 9.08 0 0118.13 0z"/>
	</symbol>

	<symbol viewBox="0 0 39 39" id="switch-arrow">
		<circle cx="19.5" cy="19.5" r="19"/><g clip-path="url(#oclip0)">
		<path d="M16.33 19.5l7.8-7.8a.7.7 0 00-.97-.97l-8.3 8.29a.7.7 0 000 .97l8.3 8.3a.7.7 0 00.97-.98l-7.8-7.8z"/></g>
		<defs><clipPath id="oclip0">
		<path d="M0 0h17.95v17.95H0z" transform="translate(10.52 10.52)"/></clipPath></defs>
	</symbol>

	<symbol viewBox="0 0 61 61" id="wallet"><g clip-path="url(#pclip0)">
		<path d="M57.95 6.4H3.05a3.06 3.06 0 000 6.1h54.9c1.1 0 2.14.27 3.05.75v-3.8a3.05 3.05 0 00-3.05-3.06zm0 9.7H3.05A6.61 6.61 0 010 15.34v36.2a3.05 3.05 0 003.05 3.06h54.9A3.05 3.05 0 0061 51.56V42.7H46.32A7.35 7.35 0 0146.4 28H61v-8.86a3.05 3.05 0 00-3.05-3.05z"/>
		<path d="M52.72 39.1H61v-7.5h-8.28a7.33 7.33 0 010 7.5zm-10.07-3.75a3.76 3.76 0 107.53-.01 3.76 3.76 0 00-7.53.01z"/></g>
		<defs><clipPath id="pclip0">
		<path d="M0 0h61v61H0z"/></clipPath></defs>
	</symbol>

	<symbol viewBox="0 0 95 20" id="yandex-food-logo">
		<path d="M43.92 16.48c-1.17 0-2.09-.45-2.75-1.35-.67-.9-1-2.26-1-4.08 0-.82.08-1.57.25-2.24.16-.67.41-1.24.74-1.7.3-.46.72-.84 1.21-1.1a3.53 3.53 0 011.68-.39c.5 0 .9.06 1.2.16.3.1.58.24.82.39l-.24 1.55a3.67 3.67 0 00-.81-.53c-.3-.15-.65-.22-.99-.22-.6 0-1.1.33-1.5.99a6.07 6.07 0 00-.58 3c0 1.34.16 2.37.49 3.1.32.72.83 1.08 1.53 1.08.42 0 .78-.07 1.08-.2.28-.13.53-.28.76-.47l.4 1.21a3.46 3.46 0 01-2.28.8zm-8.7-5.4v5.25h-1.7V5.77h1.7v4.88l2.63-4.88h1.71l-2.71 4.97 3.1 5.6h-1.84l-2.89-5.27zm-6.45-4.11c-.52 0-.89.28-1.1.84a7.81 7.81 0 00-.42 2.28h2.8c0-.45-.02-.86-.06-1.25-.04-.34-.1-.67-.21-1-.1-.27-.22-.49-.39-.64a.88.88 0 00-.62-.23zm3.04 8.65a4.18 4.18 0 01-2.7.86 3.19 3.19 0 01-2.66-1.27c-.65-.84-.98-2.08-.98-3.72 0-.85.06-1.63.19-2.34a6.5 6.5 0 01.58-1.86c.27-.52.61-.93 1.03-1.23a2.91 2.91 0 012.74-.18c.37.18.7.46.95.86.26.39.47.9.61 1.51.15.63.22 1.38.22 2.28v.9h-4.56c0 1.2.17 2.11.5 2.72.35.62.86.93 1.54.93.48 0 .9-.08 1.27-.25.37-.16.66-.31.88-.47l.39 1.26zm-9.9-8.5h-1.89v.18c0 .61 0 1.22-.03 1.83a28.14 28.14 0 01-.45 4.03A9.6 9.6 0 0119 15h2.91V7.11zm2.54 11.29h-1.52v-2.08h-4.69v2.08h-1.52v-3.42h.68c.24-.56.44-1.17.58-1.85a27.17 27.17 0 00.49-4.3c.02-.72.03-1.44.03-2.17v-.9h5.08V15h.87v3.42zm-8.7-12.64v10.56h-1.68V11.6h-2.51v4.73h-1.7V5.77h1.7v4.49h2.51V5.77h1.68zM73.2 1.02h5.64v.86h-4.57v6.18h3.93v.86h-3.93v6.58h4.64v.86H73.2V1.02zm9.38 10.87c-.1.88-.22 1.62-.37 2.2a3.22 3.22 0 01-.66 1.37h4.15V6.47h-2.77a82.16 82.16 0 01-.17 3.54c-.05.64-.1 1.27-.18 1.88zm4.22 4.42h-5.92l-.14 2.1h-.8v-2.95h.46c.33-.18.6-.61.81-1.29.2-.67.37-1.52.49-2.53.07-.66.12-1.34.16-2.05l.1-1.94.06-2.03h4.72v9.84h1v2.95h-.8l-.14-2.1zm4.75-.3c.52 0 .96-.2 1.33-.61.36-.41.64-.91.85-1.5v-2.95h-1.2c-.93 0-1.62.21-2.07.64-.44.42-.67 1.1-.67 2.04 0 .77.16 1.36.48 1.77.32.41.75.62 1.28.62zm2.5.65c-.06-.18-.1-.36-.15-.55-.06-.3-.1-.6-.12-.91-.27.51-.6.92-1 1.22-.4.3-.89.45-1.45.45-.76 0-1.37-.27-1.85-.82a3.42 3.42 0 01-.7-2.31c0-1.16.31-2.04.95-2.63.64-.6 1.56-.9 2.78-.9h1.22V8.87c0-.84-.15-1.44-.47-1.82-.3-.37-.77-.56-1.4-.56a2.89 2.89 0 00-2.36 1.2l-.28-.96c.22-.29.56-.54 1-.76.46-.22 1-.34 1.64-.34.94 0 1.65.26 2.15.77.5.5.75 1.3.75 2.37v5.9c0 .38.02.75.06 1.13.05.38.1.67.18.87h-.96z"/><mask id="qa" maskUnits="userSpaceOnUse" x="49" y="0" width="20" height="20">
		<path d="M49.98.1H68.9v19.84H49.98V.1z"/></mask><g mask="url(#qa)">
		<path d="M61.82 8.25a1.9 1.9 0 00-.2-.42 2 2 0 00-.94-.76 2.42 2.42 0 00-2.03.1 2.8 2.8 0 00-1.37 3.47 3.31 3.31 0 001.04 1.53 4.13 4.13 0 002.95.9A4.43 4.43 0 0065.28 8a4.75 4.75 0 00-1.06-2.42 5.34 5.34 0 00-2.31-1.66 5.94 5.94 0 00-3.03-.33 6.24 6.24 0 00-5.28 5.48 6.27 6.27 0 00.6 3.4 6.77 6.77 0 002.4 2.74 7.5 7.5 0 003.66 1.27 8.01 8.01 0 008.62-7.26 7.9 7.9 0 00-.86-4.25 8.5 8.5 0 00-3.06-3.37A9.37 9.37 0 0060.4.11a9.94 9.94 0 00-8.73 4.19 9.48 9.48 0 00-.57 9.91 10.26 10.26 0 003.73 4 11.21 11.21 0 006.08 1.73c2.82 0 5.54-1 7.66-2.83l-1.2-1.28a9.87 9.87 0 01-11.56.94 8.95 8.95 0 01-3.1-3.33 8.16 8.16 0 01-.92-4.23c.11-1.75.8-3.4 1.98-4.72a8.03 8.03 0 0110.19-1.46 7.16 7.16 0 012.45 2.7 6.44 6.44 0 01.68 3.36 6.1 6.1 0 01-2.25 4.29 6.26 6.26 0 01-5.9 1.07 5.7 5.7 0 01-2.37-1.58 5.03 5.03 0 01-1.14-2.37 4.6 4.6 0 01.83-3.5 4.45 4.45 0 012.9-1.71 4.16 4.16 0 012.96.7 3.62 3.62 0 011.15 1.41 3.14 3.14 0 01.22 1.64 2.66 2.66 0 01-2.39 2.31 2.4 2.4 0 01-1.15-.2 1.81 1.81 0 01-.77-.64c-.16-.23-.25-.5-.26-.79a1.23 1.23 0 01.17-.66.99.99 0 01.4-.37.86.86 0 01.17-.05c.04.55.52.98 1.1.98.61 0 1.11-.48 1.11-1.06 0-.1-.02-.21-.05-.3v-.01"/></g>
		<path d="M6.08 2.4h-.9c-.34 0-.68.06-1 .18-.33.12-.62.32-.86.58-.25.26-.46.62-.61 1.05-.16.44-.23.98-.23 1.63 0 .62.07 1.13.2 1.55.15.42.34.75.58 1.01.24.25.54.44.87.55.34.1.69.16 1.05.16h.9V2.4zm-1.41 8.08l-2.7 5.88H0l2.96-6.28a4.17 4.17 0 01-1.68-1.52 4.97 4.97 0 01-.64-2.71c0-.8.12-1.5.37-2.11a4.13 4.13 0 012.47-2.41c.56-.2 1.16-.31 1.76-.3H7.8v15.33H6.1v-5.88H4.66z"/>
	</symbol>

</svg>