<svg xmlns="http://www.w3.org/2000/svg" width="1575" height="597" fill="none"><path fill="#271A14" fill-opacity=".3" d="M175.515 151.816l-.777.576.007.008.007.007.763-.591zm0-39.975l-.769-.584-.002.002.771.582zm36.411-.145l.763-.591-.763.591zm0 40.12l.763.591-.763-.591zm49.29-46.952v-.915h-.528l-.298.399.826.516zm9.381 0l.826.515 1.068-1.43h-1.894v.915zm-76.002 101.755v.914h.528l.298-.399-.826-.515zm-9.381 0l-.826-.516-1.068 1.43h1.894v-.914zm20.988-59.309l-.793-.558-.002.003.795.555zm0-30.962l-.802.545.008.01.009.011.785-.566zm-24.963 0l-.802-.546.802.546zm62.646 83.439l-.769.584.006.006.763-.59zm0-39.976l.763.591.006-.006-.769-.585zm36.252 0l-.777.576.007.008.007.007.763-.591zm0 39.976l-.769-.584-.002.001.771.583zm-5.565-4.652l-.802-.546.802.546zm0-30.817l-.802.546.802-.546zm-25.122 0l-.793-.558-.002.003.795.555zm0 30.962l-.802.546.008.01.009.011.785-.567zm-55.65-36.819c-7.246 0-13.057-2.411-17.522-7.235l-1.526 1.181c4.863 5.254 11.242 7.883 19.048 7.883v-1.829zm-17.508-7.221c-4.381-4.936-6.614-11.404-6.614-19.484h-2c0 8.395 2.325 15.301 7.06 20.636l1.554-1.152zm-6.614-19.484c0-8.081 2.233-14.496 6.608-19.332l-1.542-1.165c-4.741 5.242-7.066 12.103-7.066 20.497h2zm6.606-19.331c4.468-4.919 10.277-7.374 17.516-7.374v-1.828c-7.813 0-14.194 2.681-19.054 8.034l1.538 1.168zm17.516-7.374c7.135 0 12.895 2.408 17.363 7.235l1.526-1.181c-4.86-5.251-11.184-7.882-18.889-7.882v1.828zm17.363 7.235c4.474 4.835 6.759 11.294 6.759 19.47h2c0-8.492-2.379-15.407-7.233-20.651l-1.526 1.181zm6.759 19.47c0 8.176-2.285 14.635-6.759 19.47l1.526 1.181c4.854-5.244 7.233-12.158 7.233-20.651h-2zm-6.759 19.47c-4.468 4.827-10.228 7.235-17.363 7.235v1.829c7.705 0 14.029-2.632 18.889-7.883l-1.526-1.181zm50.053-45.448h9.381v-1.829h-9.381v1.829zm8.555-1.43l-76.002 101.755 1.652 1.031 76.002-101.755-1.652-1.031zm-75.176 101.357h-9.381v1.828h9.381v-1.828zm-8.555 1.429l76.002-101.755-1.652-1.031-76.002 101.755 1.652 1.031zm7.76-53.386c5.497 0 9.928-1.967 13.197-5.883l-1.59-1.11c-2.879 3.45-6.716 5.165-11.607 5.165v1.828zm13.195-5.88c3.357-3.991 4.977-9.396 4.977-16.112h-2c0 6.464-1.56 11.428-4.563 14.996l1.586 1.116zm4.977-16.112c0-6.714-1.619-12.077-4.985-15.975l-1.57 1.133c2.994 3.467 4.555 8.377 4.555 14.842h2zm-4.968-15.954c-3.264-4.014-7.697-6.038-13.204-6.038v1.829c4.881 0 8.716 1.755 11.6 5.3l1.604-1.091zm-13.204-6.038c-5.605 0-10.094 2.019-13.363 6.038l1.604 1.091c2.879-3.54 6.764-5.3 11.759-5.3v-1.829zm-13.363 6.038c-3.243 3.987-4.809 9.338-4.809 15.954h2c0-6.369 1.508-11.291 4.413-14.863l-1.604-1.091zm-4.809 15.954c0 6.617 1.566 11.968 4.809 15.955l1.604-1.092c-2.905-3.572-4.413-8.493-4.413-14.863h-2zm4.809 15.955c3.269 4.019 7.758 6.037 13.363 6.037v-1.828c-4.995 0-8.88-1.761-11.759-5.301l-1.604 1.092zm81.574 58.72c-7.135 0-12.895-2.408-17.363-7.235l-1.526 1.181c4.86 5.252 11.184 7.883 18.889 7.883v-1.829zm-17.357-7.228c-4.482-4.936-6.765-11.401-6.765-19.477h-2c0 8.4 2.381 15.308 7.227 20.645l1.538-1.168zm-6.765-19.477c0-8.076 2.283-14.488 6.759-19.324l-1.526-1.181c-4.852 5.242-7.233 12.107-7.233 20.505h2zm6.765-19.33c4.471-4.924 10.229-7.375 17.357-7.375v-1.828c-7.712 0-14.038 2.685-18.895 8.034l1.538 1.169zm17.357-7.375c7.239 0 12.99 2.454 17.349 7.366l1.554-1.151c-4.757-5.361-11.09-8.043-18.903-8.043v1.828zm17.363 7.381c4.476 4.836 6.759 11.248 6.759 19.324h2c0-8.398-2.381-15.263-7.233-20.505l-1.526 1.181zm6.759 19.324c0 8.076-2.283 14.541-6.765 19.477l1.538 1.168c4.846-5.337 7.227-12.245 7.227-20.645h-2zm-6.767 19.478c-4.357 4.817-10.109 7.227-17.355 7.227v1.829c7.806 0 14.138-2.629 18.897-7.891l-1.542-1.165zm-17.355 2.515c5.605 0 10.094-2.019 13.363-6.038l-1.604-1.092c-2.879 3.54-6.764 5.301-11.759 5.301v1.829zm13.363-6.038c3.243-3.987 4.809-9.338 4.809-15.955h-2c0 6.37-1.508 11.291-4.413 14.863l1.604 1.092zm4.809-15.955c0-6.616-1.566-11.967-4.809-15.954l-1.604 1.092c2.905 3.572 4.413 8.493 4.413 14.862h2zm-4.809-15.954c-3.269-4.019-7.758-6.038-13.363-6.038v1.829c4.995 0 8.88 1.761 11.759 5.301l1.604-1.092zm-13.363-6.038c-5.506 0-9.985 2.023-13.354 6.026l1.586 1.115c2.991-3.555 6.886-5.312 11.768-5.312v-1.829zm-13.356 6.029c-3.253 3.897-4.816 9.256-4.816 15.963h2c0-6.471 1.511-11.386 4.406-14.853l-1.59-1.11zm-4.816 15.963c0 6.71 1.564 12.11 4.809 16.1l1.604-1.091c-2.903-3.57-4.413-8.538-4.413-15.009h-2zm4.826 16.121c3.372 3.905 7.85 5.872 13.346 5.872v-1.829c-4.892 0-8.788-1.716-11.776-5.176l-1.57 1.133zM107.515 8.28l-.777.576.007.008.007.007.763-.59zm0-39.975l-.769-.584-.002.001.771.583zm36.411-.145l.763-.59-.763.59zm0 40.12l.763.59-.763-.59zm49.29-46.952v-.915h-.528l-.298.399.826.516zm9.381 0l.826.515 1.068-1.43h-1.894v.915zM126.595 63.083v.914h.528l.298-.399-.826-.515zm-9.381 0l-.826-.516-1.068 1.43h1.894v-.914zm20.988-59.309l-.793-.557-.002.002.795.555zm0-30.963l-.802.546.008.01.009.01.785-.566zm-24.963 0l-.802-.545.802.545zm62.646 83.44l-.769.584.006.006.763-.59zm0-39.976l.763.591.006-.007-.769-.584zm36.252 0l-.777.576.007.008.007.007.763-.59zm0 39.976l-.769-.584h-.002l.771.584zm-5.565-4.652l-.802-.546.802.546zm0-30.817l-.802.545.802-.545zm-25.122 0l-.793-.558-.002.003.795.555zm0 30.962l-.802.546.008.01.009.01.785-.566zM125.8 14.925c-7.246 0-13.057-2.411-17.522-7.235l-1.526 1.18c4.863 5.255 11.242 7.883 19.048 7.883v-1.828zm-17.508-7.22c-4.381-4.937-6.614-11.405-6.614-19.485h-2c0 8.394 2.325 15.3 7.06 20.636l1.554-1.152zm-6.614-19.485c0-8.081 2.233-14.496 6.608-19.332l-1.542-1.166c-4.741 5.243-7.066 12.105-7.066 20.498h2zm6.606-19.33c4.468-4.92 10.277-7.375 17.516-7.375v-1.828c-7.813 0-14.194 2.681-19.054 8.034l1.538 1.168zm17.516-7.375c7.135 0 12.895 2.408 17.363 7.235l1.526-1.18c-4.86-5.252-11.184-7.883-18.889-7.883v1.828zm17.363 7.235c4.474 4.835 6.759 11.294 6.759 19.47h2c0-8.492-2.379-15.407-7.233-20.65l-1.526 1.18zm6.759 19.47c0 8.176-2.285 14.635-6.759 19.47l1.526 1.18c4.854-5.243 7.233-12.158 7.233-20.65h-2zm-6.759 19.47c-4.468 4.827-10.228 7.235-17.363 7.235v1.828c7.705 0 14.029-2.631 18.889-7.882l-1.526-1.181zm50.053-45.448h9.381v-1.829h-9.381v1.829zm8.555-1.43L125.769 62.567l1.652 1.031 76.002-101.755-1.652-1.031zM126.595 62.169h-9.381v1.828h9.381v-1.828zm-8.555 1.43l76.002-101.756-1.652-1.031-76.002 101.755 1.652 1.031zm7.76-53.387c5.497 0 9.928-1.968 13.197-5.883l-1.59-1.11c-2.879 3.45-6.716 5.165-11.607 5.165v1.828zm13.195-5.88c3.357-3.991 4.977-9.396 4.977-16.112h-2c0 6.464-1.56 11.428-4.563 14.997l1.586 1.114zm4.977-16.112c0-6.714-1.619-12.077-4.985-15.975l-1.57 1.133c2.994 3.467 4.555 8.376 4.555 14.842h2zm-4.968-15.954c-3.264-4.014-7.697-6.038-13.204-6.038v1.828c4.881 0 8.716 1.756 11.6 5.3l1.604-1.09zM125.8-33.772c-5.605 0-10.094 2.019-13.363 6.038l1.604 1.09c2.879-3.539 6.764-5.3 11.759-5.3v-1.828zm-13.363 6.038c-3.243 3.987-4.809 9.338-4.809 15.954h2c0-6.37 1.508-11.291 4.413-14.863l-1.604-1.091zm-4.809 15.954c0 6.617 1.566 11.967 4.809 15.954l1.604-1.09c-2.905-3.573-4.413-8.495-4.413-14.864h-2zm4.809 15.954c3.269 4.02 7.758 6.038 13.363 6.038V8.384c-4.995 0-8.88-1.761-11.759-5.3l-1.604 1.09zm81.574 58.721c-7.135 0-12.895-2.407-17.363-7.235l-1.526 1.181c4.86 5.251 11.184 7.883 18.889 7.883v-1.829zm-17.357-7.228c-4.482-4.937-6.765-11.401-6.765-19.477h-2c0 8.4 2.381 15.309 7.227 20.645l1.538-1.168zm-6.765-19.477c0-8.076 2.283-14.488 6.759-19.324l-1.526-1.181c-4.852 5.242-7.233 12.107-7.233 20.505h2zm6.765-19.33c4.471-4.924 10.229-7.375 17.357-7.375V7.657c-7.712 0-14.038 2.685-18.895 8.034l1.538 1.168zm17.357-7.375c7.239 0 12.99 2.454 17.349 7.366l1.554-1.152c-4.757-5.36-11.09-8.042-18.903-8.042v1.828zm17.363 7.38c4.476 4.837 6.759 11.249 6.759 19.325h2c0-8.398-2.381-15.263-7.233-20.505l-1.526 1.18zm6.759 19.325c0 8.076-2.283 14.54-6.765 19.477l1.538 1.168c4.846-5.337 7.227-12.246 7.227-20.645h-2zm-6.767 19.478c-4.357 4.817-10.109 7.227-17.355 7.227v1.829c7.806 0 14.138-2.63 18.897-7.89l-1.542-1.166zm-17.355 2.514c5.605 0 10.094-2.018 13.363-6.038l-1.604-1.09c-2.879 3.54-6.764 5.3-11.759 5.3v1.828zm13.363-6.038c3.243-3.987 4.809-9.337 4.809-15.954h-2c0 6.37-1.508 11.291-4.413 14.863l1.604 1.091zm4.809-15.954c0-6.616-1.566-11.967-4.809-15.954l-1.604 1.091c2.905 3.572 4.413 8.494 4.413 14.863h2zm-4.809-15.954c-3.269-4.02-7.758-6.038-13.363-6.038v1.829c4.995 0 8.88 1.76 11.759 5.3l1.604-1.09zm-13.363-6.038c-5.506 0-9.985 2.023-13.354 6.026l1.586 1.115c2.991-3.555 6.886-5.312 11.768-5.312v-1.829zm-13.356 6.029c-3.253 3.897-4.816 9.255-4.816 15.963h2c0-6.471 1.511-11.385 4.406-14.854l-1.59-1.109zm-4.816 15.963c0 6.71 1.564 12.11 4.809 16.1l1.604-1.091c-2.903-3.57-4.413-8.539-4.413-15.009h-2zm4.826 16.12c3.372 3.906 7.85 5.872 13.346 5.872v-1.828c-4.892 0-8.788-1.716-11.776-5.176l-1.57 1.133zm-57.15 335.381l-.777.576.007.007.007.008.763-.591zm0-39.975l-.769-.584-.002.001.771.583zm36.411-.146l.763-.59-.763.59zm0 40.121l.763.591-.763-.591zm49.29-46.953v-.914h-.528l-.298.399.826.515zm9.381 0l.826.516 1.068-1.43h-1.894v.914zm-76.002 101.755v.915h.528l.298-.399-.826-.516zm-9.381 0l-.826-.515-1.068 1.43h1.894v-.915zm20.988-59.308l-.793-.558-.002.003.795.555zm0-30.963l-.802.546.008.01.009.011.785-.567zm-24.963 0l-.802-.546.802.546zm62.646 83.439l-.769.584.006.007.763-.591zm0-39.975l.763.591.006-.007-.769-.584zm36.252 0l-.777.576.007.007.007.008.763-.591zm0 39.975l-.769-.584-.002.002.771.582zm-5.565-4.651l-.802-.546.802.546zm0-30.818l-.802.546.802-.546zm-25.122 0l-.793-.557-.002.002.795.555zm0 30.963l-.802.546.008.01.009.011.785-.567zm-55.65-36.819c-7.246 0-13.057-2.411-17.522-7.236l-1.526 1.182c4.863 5.254 11.242 7.882 19.048 7.882v-1.828zm-17.508-7.221c-4.381-4.937-6.614-11.404-6.614-19.484h-2c0 8.394 2.325 15.3 7.06 20.636l1.554-1.152zm-6.614-19.484c0-8.081 2.233-14.497 6.608-19.333l-1.542-1.165c-4.741 5.243-7.066 12.104-7.066 20.498h2zm6.606-19.331c4.468-4.92 10.277-7.374 17.516-7.374v-1.829c-7.813 0-14.194 2.682-19.054 8.035l1.538 1.168zm17.516-7.374c7.135 0 12.895 2.408 17.363 7.235l1.526-1.181c-4.86-5.252-11.184-7.883-18.889-7.883v1.829zm17.363 7.235c4.474 4.834 6.759 11.294 6.759 19.47h2c0-8.493-2.379-15.407-7.233-20.651l-1.526 1.181zm6.759 19.47c0 8.176-2.285 14.635-6.759 19.469l1.526 1.182c4.854-5.245 7.233-12.159 7.233-20.651h-2zm-6.759 19.469c-4.468 4.828-10.228 7.236-17.363 7.236v1.828c7.705 0 14.029-2.631 18.889-7.882l-1.526-1.182zm50.053-45.448h9.381v-1.828h-9.381v1.828zm8.555-1.429l-76.002 101.755 1.652 1.031 76.002-101.755-1.652-1.031zm-75.176 101.356h-9.381v1.829h9.381v-1.829zm-8.555 1.43l76.002-101.755-1.652-1.031-76.002 101.755 1.652 1.031zm7.76-53.386c5.497 0 9.928-1.968 13.197-5.883l-1.59-1.11c-2.879 3.449-6.716 5.164-11.607 5.164v1.829zm13.195-5.881c3.357-3.99 4.977-9.395 4.977-16.111h-2c0 6.463-1.56 11.428-4.563 14.996l1.586 1.115zm4.977-16.111c0-6.715-1.619-12.077-4.985-15.976l-1.57 1.134c2.994 3.467 4.555 8.376 4.555 14.842h2zm-4.968-15.955c-3.264-4.013-7.697-6.037-13.204-6.037v1.828c4.881 0 8.716 1.755 11.6 5.301l1.604-1.092zm-13.204-6.037c-5.605 0-10.094 2.018-13.363 6.037l1.604 1.092c2.879-3.54 6.764-5.301 11.759-5.301v-1.828zm-13.363 6.037c-3.243 3.987-4.809 9.338-4.809 15.955h2c0-6.37 1.508-11.291 4.413-14.863l-1.604-1.092zm-4.809 15.955c0 6.616 1.566 11.967 4.809 15.954l1.604-1.092c-2.905-3.571-4.413-8.493-4.413-14.862h-2zm4.809 15.954c3.269 4.019 7.758 6.038 13.363 6.038v-1.829c-4.995 0-8.88-1.761-11.759-5.301l-1.604 1.092zm81.574 58.721c-7.135 0-12.895-2.408-17.363-7.235l-1.526 1.181c4.86 5.251 11.184 7.882 18.889 7.882v-1.828zm-17.357-7.229c-4.482-4.936-6.765-11.401-6.765-19.476h-2c0 8.399 2.381 15.308 7.227 20.644l1.538-1.168zm-6.765-19.476c0-8.077 2.283-14.488 6.759-19.324l-1.526-1.182c-4.852 5.243-7.233 12.108-7.233 20.506h2zm6.765-19.331c4.471-4.923 10.229-7.374 17.357-7.374v-1.829c-7.712 0-14.038 2.686-18.895 8.035l1.538 1.168zm17.357-7.374c7.239 0 12.99 2.454 17.349 7.366l1.554-1.152c-4.757-5.36-11.09-8.043-18.903-8.043v1.829zm17.363 7.381c4.476 4.836 6.759 11.247 6.759 19.324h2c0-8.398-2.381-15.263-7.233-20.506l-1.526 1.182zm6.759 19.324c0 8.075-2.283 14.54-6.765 19.476l1.538 1.168c4.846-5.336 7.227-12.245 7.227-20.644h-2zm-6.767 19.478c-4.357 4.817-10.109 7.227-17.355 7.227v1.828c7.806 0 14.138-2.629 18.897-7.89l-1.542-1.165zm-17.355 2.514c5.605 0 10.094-2.019 13.363-6.038l-1.604-1.091c-2.879 3.54-6.764 5.301-11.759 5.301v1.828zm13.363-6.038c3.243-3.987 4.809-9.338 4.809-15.954h-2c0 6.369-1.508 11.291-4.413 14.863l1.604 1.091zm4.809-15.954c0-6.616-1.566-11.968-4.809-15.955l-1.604 1.092c2.905 3.572 4.413 8.493 4.413 14.863h2zm-4.809-15.955c-3.269-4.019-7.758-6.037-13.363-6.037v1.828c4.995 0 8.88 1.761 11.759 5.301l1.604-1.092zm-13.363-6.037c-5.506 0-9.985 2.022-13.354 6.026l1.586 1.115c2.991-3.556 6.886-5.313 11.768-5.313v-1.828zm-13.356 6.028c-3.253 3.898-4.816 9.256-4.816 15.964h2c0-6.472 1.511-11.386 4.406-14.854l-1.59-1.11zm-4.816 15.964c0 6.71 1.564 12.11 4.809 16.1l1.604-1.092c-2.903-3.569-4.413-8.538-4.413-15.008h-2zm4.826 16.121c3.372 3.904 7.85 5.871 13.346 5.871v-1.828c-4.892 0-8.788-1.717-11.776-5.177l-1.57 1.134zm347.85-409.728l-.777.576.007.008.007.007.763-.59zm0-39.975l-.769-.584-.002.001.771.583zm36.411-.145l.763-.591-.763.59zm0 40.12l.763.59-.763-.59zm49.29-46.953v-.914h-.528l-.298.399.826.515zm9.381 0l.826.516 1.068-1.43h-1.894v.915zM563.595 76.797v.914h.528l.298-.399-.826-.515zm-9.381 0l-.826-.516-1.068 1.43h1.894v-.914zm20.988-59.31l-.793-.556-.002.002.795.555zm0-30.962l-.802.546.008.01.009.01.785-.566zm-24.963 0l-.802-.545.802.545zm62.646 83.44l-.769.584.006.006.763-.59zm0-39.976l.763.59.006-.006-.769-.584zm36.252 0l-.777.576.007.008.007.007.763-.59zm0 39.976l-.769-.585-.002.002.771.582zm-5.565-4.652l-.802-.546.802.546zm0-30.818l-.802.546.802-.545zm-25.122 0l-.793-.557-.002.003.795.554zm0 30.963l-.802.546.008.01.009.01.785-.566zm-55.65-36.82c-7.246 0-13.057-2.41-17.522-7.234l-1.526 1.18c4.863 5.255 11.242 7.883 19.048 7.883V28.64zm-17.508-7.22c-4.381-4.936-6.614-11.404-6.614-19.484h-2c0 8.394 2.325 15.3 7.06 20.636l1.554-1.152zm-6.614-19.484c0-8.081 2.233-14.496 6.608-19.332l-1.542-1.166c-4.741 5.242-7.066 12.104-7.066 20.498h2zm6.606-19.331c4.468-4.92 10.277-7.374 17.516-7.374V-26.6c-7.813 0-14.194 2.682-19.054 8.035l1.538 1.168zm17.516-7.374c7.135 0 12.895 2.408 17.363 7.235l1.526-1.181c-4.86-5.251-11.184-7.883-18.889-7.883v1.829zm17.363 7.235c4.474 4.835 6.759 11.294 6.759 19.47h2c0-8.492-2.379-15.407-7.233-20.651l-1.526 1.181zm6.759 19.47c0 8.176-2.285 14.635-6.759 19.47l1.526 1.18c4.854-5.243 7.233-12.158 7.233-20.65h-2zm-6.759 19.47c-4.468 4.827-10.228 7.235-17.363 7.235v1.828c7.705 0 14.029-2.631 18.889-7.882l-1.526-1.181zm50.053-45.448h9.381v-1.829h-9.381v1.829zm8.555-1.43L562.769 76.28l1.652 1.031 76.002-101.755-1.652-1.031zM563.595 75.882h-9.381v1.829h9.381v-1.829zm-8.555 1.43l76.002-101.755-1.652-1.031L553.388 76.28l1.652 1.031zm7.76-53.386c5.497 0 9.928-1.968 13.197-5.883l-1.59-1.11c-2.879 3.45-6.716 5.165-11.607 5.165v1.828zm13.195-5.88c3.357-3.991 4.977-9.396 4.977-16.112h-2c0 6.464-1.56 11.428-4.563 14.996l1.586 1.115zm4.977-16.112c0-6.714-1.619-12.077-4.985-15.975l-1.57 1.133c2.994 3.467 4.555 8.376 4.555 14.842h2zm-4.968-15.954c-3.264-4.014-7.697-6.038-13.204-6.038v1.828c4.881 0 8.716 1.756 11.6 5.3l1.604-1.09zM562.8-20.058c-5.605 0-10.094 2.018-13.363 6.038l1.604 1.09c2.879-3.539 6.764-5.3 11.759-5.3v-1.828zm-13.363 6.038c-3.243 3.987-4.809 9.337-4.809 15.954h2c0-6.37 1.508-11.291 4.413-14.863l-1.604-1.091zm-4.809 15.954c0 6.616 1.566 11.967 4.809 15.954l1.604-1.091c-2.905-3.572-4.413-8.494-4.413-14.863h-2zm4.809 15.954c3.269 4.02 7.758 6.038 13.363 6.038v-1.828c-4.995 0-8.88-1.761-11.759-5.301l-1.604 1.091zm81.574 58.721c-7.135 0-12.895-2.407-17.363-7.235l-1.526 1.181c4.86 5.251 11.184 7.883 18.889 7.883v-1.829zm-17.357-7.229c-4.482-4.936-6.765-11.4-6.765-19.476h-2c0 8.4 2.381 15.308 7.227 20.645l1.538-1.169zm-6.765-19.476c0-8.076 2.283-14.488 6.759-19.324l-1.526-1.181c-4.852 5.242-7.233 12.107-7.233 20.505h2zm6.765-19.33c4.471-4.924 10.229-7.375 17.357-7.375v-1.828c-7.712 0-14.038 2.685-18.895 8.034l1.538 1.168zm17.357-7.375c7.239 0 12.99 2.454 17.349 7.366l1.554-1.152c-4.757-5.36-11.09-8.042-18.903-8.042v1.828zm17.363 7.38c4.476 4.837 6.759 11.249 6.759 19.325h2c0-8.398-2.381-15.263-7.233-20.505l-1.526 1.18zm6.759 19.325c0 8.076-2.283 14.54-6.765 19.476l1.538 1.169c4.846-5.337 7.227-12.246 7.227-20.645h-2zm-6.767 19.478c-4.357 4.817-10.109 7.227-17.355 7.227v1.829c7.806 0 14.138-2.63 18.897-7.89l-1.542-1.166zm-17.355 2.514c5.605 0 10.094-2.019 13.363-6.038l-1.604-1.09c-2.879 3.539-6.764 5.3-11.759 5.3v1.828zm13.363-6.038c3.243-3.987 4.809-9.337 4.809-15.954h-2c0 6.37-1.508 11.291-4.413 14.863l1.604 1.091zm4.809-15.954c0-6.616-1.566-11.967-4.809-15.954l-1.604 1.091c2.905 3.572 4.413 8.494 4.413 14.863h2zm-4.809-15.954c-3.269-4.02-7.758-6.038-13.363-6.038v1.829c4.995 0 8.88 1.76 11.759 5.3l1.604-1.091zm-13.363-6.038c-5.506 0-9.985 2.023-13.354 6.026l1.586 1.115c2.991-3.556 6.886-5.312 11.768-5.312v-1.829zm-13.356 6.029c-3.253 3.897-4.816 9.255-4.816 15.963h2c0-6.472 1.511-11.386 4.406-14.854l-1.59-1.11zm-4.816 15.963c0 6.71 1.564 12.11 4.809 16.1l1.604-1.091c-2.903-3.57-4.413-8.539-4.413-15.009h-2zm4.826 16.12c3.372 3.906 7.85 5.872 13.346 5.872v-1.828c-4.892 0-8.788-1.716-11.776-5.176l-1.57 1.133zm-234.15 474.345l-.777.576.007.007.007.008.763-.591zm0-39.975l-.769-.584-.002.002.771.582zm36.411-.145l.763-.591-.763.591zm0 40.12l.763.591-.763-.591zm49.29-46.953v-.914h-.528l-.298.399.826.515zm9.381 0l.826.516 1.068-1.43h-1.894v.914zm-76.002 101.756v.914h.528l.298-.399-.826-.515zm-9.381 0l-.826-.516-1.068 1.43h1.894v-.914zm20.988-59.309l-.793-.558-.002.003.795.555zm0-30.963l-.802.546.008.01.009.011.785-.567zm-24.963 0l-.802-.546.802.546zm62.646 83.439l-.769.585.006.006.763-.591zm0-39.975l.763.591.006-.007-.769-.584zm36.252 0l-.777.576.007.008.007.007.763-.591zm0 39.975l-.769-.584-.002.002.771.582zm-5.565-4.651l-.802-.546.802.546zm0-30.817l-.802.545.802-.545zm-25.122 0l-.793-.558-.002.003.795.555zm0 30.962l-.802.546.008.01.009.011.785-.567zm-55.65-36.819c-7.246 0-13.057-2.411-17.522-7.235l-1.526 1.181c4.863 5.254 11.242 7.882 19.048 7.882v-1.828zm-17.508-7.221c-4.381-4.937-6.614-11.404-6.614-19.484h-2c0 8.394 2.325 15.301 7.06 20.636l1.554-1.152zm-6.614-19.484c0-8.081 2.233-14.496 6.608-19.333l-1.542-1.164c-4.741 5.242-7.066 12.103-7.066 20.497h2zm6.606-19.331c4.468-4.919 10.277-7.374 17.516-7.374v-1.829c-7.813 0-14.194 2.682-19.054 8.035l1.538 1.168zm17.516-7.374c7.135 0 12.895 2.408 17.363 7.235l1.526-1.181c-4.86-5.251-11.184-7.883-18.889-7.883v1.829zm17.363 7.235c4.474 4.835 6.759 11.294 6.759 19.47h2c0-8.493-2.379-15.407-7.233-20.651l-1.526 1.181zm6.759 19.47c0 8.176-2.285 14.635-6.759 19.47l1.526 1.181c4.854-5.244 7.233-12.159 7.233-20.651h-2zm-6.759 19.47c-4.468 4.827-10.228 7.235-17.363 7.235v1.828c7.705 0 14.029-2.631 18.889-7.882l-1.526-1.181zm50.053-45.448h9.381v-1.829h-9.381v1.829zm8.555-1.43l-76.002 101.755 1.652 1.031 76.002-101.755-1.652-1.031zm-75.176 101.356h-9.381v1.829h9.381v-1.829zm-8.555 1.43l76.002-101.755-1.652-1.031-76.002 101.755 1.652 1.031zm7.76-53.386c5.497 0 9.928-1.967 13.197-5.883l-1.59-1.11c-2.879 3.449-6.716 5.164-11.607 5.164v1.829zm13.195-5.88c3.357-3.991 4.977-9.396 4.977-16.112h-2c0 6.464-1.56 11.428-4.563 14.996l1.586 1.116zm4.977-16.112c0-6.714-1.619-12.077-4.985-15.976l-1.57 1.134c2.994 3.467 4.555 8.376 4.555 14.842h2zm-4.968-15.955c-3.264-4.013-7.697-6.037-13.204-6.037v1.828c4.881 0 8.716 1.756 11.6 5.301l1.604-1.092zm-13.204-6.037c-5.605 0-10.094 2.018-13.363 6.037l1.604 1.092c2.879-3.54 6.764-5.301 11.759-5.301v-1.828zm-13.363 6.037c-3.243 3.987-4.809 9.338-4.809 15.955h2c0-6.37 1.508-11.291 4.413-14.863l-1.604-1.092zm-4.809 15.955c0 6.616 1.566 11.967 4.809 15.954l1.604-1.091c-2.905-3.572-4.413-8.494-4.413-14.863h-2zm4.809 15.954c3.269 4.019 7.758 6.038 13.363 6.038v-1.829c-4.995 0-8.88-1.76-11.759-5.3l-1.604 1.091zm81.574 58.721c-7.135 0-12.895-2.408-17.363-7.235l-1.526 1.181c4.86 5.251 11.184 7.883 18.889 7.883v-1.829zm-17.357-7.229c-4.482-4.936-6.765-11.4-6.765-19.476h-2c0 8.399 2.381 15.308 7.227 20.645l1.538-1.169zm-6.765-19.476c0-8.076 2.283-14.488 6.759-19.324l-1.526-1.181c-4.852 5.242-7.233 12.107-7.233 20.505h2zm6.765-19.331c4.471-4.923 10.229-7.374 17.357-7.374v-1.828c-7.712 0-14.038 2.685-18.895 8.034l1.538 1.168zm17.357-7.374c7.239 0 12.99 2.454 17.349 7.366l1.554-1.152c-4.757-5.36-11.09-8.042-18.903-8.042v1.828zm17.363 7.381c4.476 4.836 6.759 11.248 6.759 19.324h2c0-8.398-2.381-15.263-7.233-20.505l-1.526 1.181zm6.759 19.324c0 8.076-2.283 14.54-6.765 19.476l1.538 1.169c4.846-5.337 7.227-12.246 7.227-20.645h-2zm-6.767 19.478c-4.357 4.817-10.109 7.227-17.355 7.227v1.829c7.806 0 14.138-2.63 18.897-7.891l-1.542-1.165zm-17.355 2.514c5.605 0 10.094-2.018 13.363-6.037l-1.604-1.092c-2.879 3.54-6.764 5.301-11.759 5.301v1.828zm13.363-6.037c3.243-3.987 4.809-9.338 4.809-15.955h-2c0 6.37-1.508 11.291-4.413 14.863l1.604 1.092zm4.809-15.955c0-6.616-1.566-11.967-4.809-15.954l-1.604 1.091c2.905 3.572 4.413 8.494 4.413 14.863h2zm-4.809-15.954c-3.269-4.019-7.758-6.038-13.363-6.038v1.829c4.995 0 8.88 1.76 11.759 5.3l1.604-1.091zm-13.363-6.038c-5.506 0-9.985 2.022-13.354 6.026l1.586 1.115c2.991-3.555 6.886-5.312 11.768-5.312v-1.829zm-13.356 6.029c-3.253 3.897-4.816 9.255-4.816 15.963h2c0-6.472 1.511-11.386 4.406-14.854l-1.59-1.109zm-4.816 15.963c0 6.71 1.564 12.11 4.809 16.1l1.604-1.092c-2.903-3.569-4.413-8.538-4.413-15.008h-2zm4.826 16.121c3.372 3.905 7.85 5.871 13.346 5.871v-1.828c-4.892 0-8.788-1.716-11.776-5.177l-1.57 1.134zM1185.52 67.706l-.78.576v.008l.01.007.77-.59zm0-39.975l-.77-.584-.01.001.78.583zm36.41-.146l.76-.59-.76.59zm0 40.121l.76.59-.76-.59zm49.29-46.953v-.914h-.53l-.3.399.83.515zm9.38 0l.82.516 1.07-1.43h-1.89v.914zm-76 101.755v.915h.52l.3-.399-.82-.516zm-9.39 0l-.82-.515-1.07 1.43h1.89v-.915zM1216.2 63.2l-.79-.558v.003l.79.555zm0-30.963l-.8.546.01.01.01.01.78-.566zm-24.96 0l-.8-.545.8.545zm62.65 83.439l-.77.585v.006l.77-.591zm0-39.975l.76.59v-.006l-.76-.584zm36.25 0l-.78.576.01.007v.008l.77-.59zm0 39.975l-.77-.584v.002l.77.582zm-5.57-4.651l-.8-.546.8.546zm0-30.818l-.8.546.8-.546zm-25.12 0l-.79-.557v.003l.79.554zm0 30.963l-.8.546.01.01.01.011.78-.567zm-55.65-36.82c-7.25 0-13.06-2.41-17.52-7.234l-1.53 1.18c4.86 5.255 11.24 7.883 19.05 7.883v-1.828zm-17.51-7.22c-4.38-4.936-6.61-11.404-6.61-19.484h-2c0 8.394 2.32 15.3 7.06 20.636l1.55-1.152zm-6.61-19.484c0-8.081 2.23-14.496 6.61-19.332l-1.55-1.166c-4.74 5.242-7.06 12.104-7.06 20.498h2zm6.6-19.331c4.47-4.92 10.28-7.374 17.52-7.374v-1.829c-7.81 0-14.19 2.682-19.05 8.035l1.53 1.168zm17.52-7.374c7.14 0 12.89 2.407 17.36 7.235l1.53-1.181c-4.86-5.251-11.19-7.883-18.89-7.883v1.829zm17.36 7.235c4.48 4.835 6.76 11.293 6.76 19.47h2c0-8.492-2.38-15.407-7.23-20.651l-1.53 1.181zm6.76 19.47c0 8.176-2.28 14.635-6.76 19.47l1.53 1.18c4.85-5.243 7.23-12.158 7.23-20.65h-2zm-6.76 19.47c-4.47 4.827-10.22 7.235-17.36 7.235v1.828c7.7 0 14.03-2.631 18.89-7.882l-1.53-1.181zm50.06-45.448h9.38v-1.829h-9.38v1.829zm8.55-1.43l-76 101.755 1.65 1.031 76-101.755-1.65-1.031zm-75.17 101.356h-9.39v1.829h9.39v-1.829zm-8.56 1.43l76-101.755-1.65-1.031-76 101.755 1.65 1.031zm7.76-53.386c5.5 0 9.93-1.968 13.2-5.884l-1.59-1.109c-2.88 3.45-6.72 5.164-11.61 5.164v1.829zm13.19-5.88c3.36-3.991 4.98-9.397 4.98-16.112h-2c0 6.464-1.56 11.428-4.56 14.996l1.58 1.115zm4.98-16.112c0-6.714-1.62-12.077-4.98-15.975l-1.57 1.133c2.99 3.467 4.55 8.376 4.55 14.842h2zM1217 31.692c-3.26-4.014-7.69-6.038-13.2-6.038v1.828c4.88 0 8.72 1.755 11.6 5.3l1.6-1.09zm-13.2-6.038c-5.61 0-10.09 2.018-13.36 6.038l1.6 1.09c2.88-3.54 6.77-5.3 11.76-5.3v-1.828zm-13.36 6.038c-3.25 3.987-4.81 9.337-4.81 15.954h2c0-6.37 1.51-11.291 4.41-14.863l-1.6-1.091zm-4.81 15.954c0 6.616 1.56 11.967 4.81 15.954l1.6-1.091c-2.9-3.572-4.41-8.494-4.41-14.863h-2zm4.81 15.954c3.27 4.02 7.75 6.038 13.36 6.038v-1.829c-4.99 0-8.88-1.76-11.76-5.3l-1.6 1.091zm81.57 58.721c-7.13 0-12.89-2.408-17.36-7.235l-1.53 1.181c4.86 5.251 11.19 7.883 18.89 7.883v-1.829zm-17.36-7.229c-4.48-4.936-6.76-11.4-6.76-19.476h-2c0 8.399 2.38 15.308 7.23 20.645l1.53-1.169zm-6.76-19.476c0-8.076 2.28-14.488 6.76-19.324l-1.53-1.181c-4.85 5.242-7.23 12.107-7.23 20.505h2zm6.76-19.33c4.47-4.924 10.23-7.375 17.36-7.375v-1.828c-7.71 0-14.04 2.685-18.89 8.034l1.53 1.168zm17.36-7.375c7.24 0 12.99 2.454 17.35 7.366l1.55-1.152c-4.75-5.36-11.09-8.042-18.9-8.042v1.828zm17.36 7.38c4.48 4.837 6.76 11.249 6.76 19.325h2c0-8.398-2.38-15.263-7.23-20.505l-1.53 1.18zm6.76 19.325c0 8.076-2.28 14.54-6.76 19.476l1.54 1.169c4.84-5.337 7.22-12.246 7.22-20.645h-2zm-6.76 19.478c-4.36 4.817-10.11 7.227-17.36 7.227v1.829c7.81 0 14.14-2.63 18.9-7.891l-1.54-1.165zm-17.36 2.514c5.61 0 10.1-2.018 13.36-6.037l-1.6-1.092c-2.88 3.54-6.76 5.301-11.76 5.301v1.828zm13.36-6.037c3.25-3.988 4.81-9.339 4.81-15.955h-2c0 6.37-1.51 11.291-4.41 14.863l1.6 1.092zm4.81-15.955c0-6.617-1.56-11.967-4.81-15.954l-1.6 1.091c2.9 3.572 4.41 8.494 4.41 14.863h2zm-4.81-15.954c-3.26-4.02-7.75-6.038-13.36-6.038v1.829c5 0 8.88 1.76 11.76 5.3l1.6-1.091zm-13.36-6.038c-5.5 0-9.98 2.023-13.35 6.026l1.58 1.115c2.99-3.556 6.89-5.313 11.77-5.313v-1.828zm-13.35 6.029c-3.26 3.897-4.82 9.255-4.82 15.963h2c0-6.472 1.51-11.386 4.4-14.854l-1.58-1.11zm-4.82 15.963c0 6.71 1.56 12.11 4.81 16.1l1.6-1.092c-2.9-3.569-4.41-8.538-4.41-15.008h-2zm4.83 16.121c3.37 3.905 7.85 5.871 13.34 5.871v-1.828c-4.89 0-8.79-1.716-11.78-5.177l-1.56 1.134zm200.85-26.66l-.78.576v.007l.01.007.77-.59zm0-39.975l-.77-.584h-.01l.78.584zm36.41-.146l.76-.59-.76.59zm0 40.12l.76.591-.76-.59zm49.29-46.952v-.914h-.53l-.3.398.83.516zm9.38 0l.82.515 1.07-1.43h-1.89v.915zm-76 101.755v.914h.52l.3-.398-.82-.516zm-9.39 0l-.82-.516-1.07 1.43h1.89v-.914zm20.99-59.309l-.79-.557v.003l.79.554zm0-30.962l-.8.545.01.01.01.011.78-.566zm-24.96 0l-.8-.546.8.546zm62.65 83.439l-.77.584v.007l.77-.591zm0-39.975l.76.59v-.006l-.76-.584zm36.25 0l-.78.576.01.007v.007l.77-.59zm0 39.975l-.77-.584v.002l.77.582zm-5.57-4.652l-.8-.546.8.546zm0-30.817l-.8.546.8-.546zm-25.12 0l-.79-.558v.003l.79.555zm0 30.963l-.8.545.01.011.01.01.78-.566zm-55.65-36.82c-7.25 0-13.06-2.41-17.52-7.235l-1.53 1.181c4.86 5.255 11.24 7.883 19.05 7.883v-1.83zm-17.51-7.22c-4.38-4.937-6.61-11.404-6.61-19.485h-2c0 8.395 2.32 15.3 7.06 20.637l1.55-1.152zm-6.61-19.485c0-8.08 2.23-14.496 6.61-19.332l-1.55-1.165c-4.74 5.242-7.06 12.104-7.06 20.497h2zm6.6-19.33c4.47-4.92 10.28-7.375 17.52-7.375v-1.828c-7.81 0-14.19 2.682-19.05 8.035l1.53 1.167zm17.52-7.375c7.14 0 12.89 2.408 17.36 7.236l1.53-1.181c-4.86-5.251-11.19-7.883-18.89-7.883v1.828zm17.36 7.236c4.48 4.834 6.76 11.293 6.76 19.47h2c0-8.493-2.38-15.407-7.23-20.651l-1.53 1.18zm6.76 19.47c0 8.176-2.28 14.635-6.76 19.47l1.53 1.18c4.85-5.244 7.23-12.159 7.23-20.65h-2zm-6.76 19.47c-4.47 4.827-10.22 7.234-17.36 7.234v1.829c7.7 0 14.03-2.632 18.89-7.883l-1.53-1.18zm50.06-45.449h9.38V37.21h-9.38v1.828zm8.55-1.43l-76 101.755 1.65 1.032 76-101.756-1.65-1.03zm-75.17 101.357h-9.39v1.828h9.39v-1.828zm-8.56 1.43l76-101.756-1.65-1.03-76 101.754 1.65 1.032zm7.76-53.387c5.5 0 9.93-1.967 13.2-5.883l-1.59-1.11c-2.88 3.45-6.72 5.165-11.61 5.165v1.828zm13.19-5.88c3.36-3.99 4.98-9.396 4.98-16.112h-2c0 6.464-1.56 11.428-4.56 14.997l1.58 1.115zm4.98-16.112c0-6.714-1.62-12.077-4.98-15.975l-1.57 1.133c2.99 3.467 4.55 8.377 4.55 14.842h2zM1491 49.062c-3.26-4.014-7.69-6.038-13.2-6.038v1.829c4.88 0 8.72 1.755 11.6 5.3l1.6-1.09zm-13.2-6.038c-5.61 0-10.09 2.019-13.36 6.038l1.6 1.091c2.88-3.54 6.77-5.3 11.76-5.3v-1.829zm-13.36 6.038c-3.25 3.987-4.81 9.338-4.81 15.954h2c0-6.369 1.51-11.29 4.41-14.863l-1.6-1.09zm-4.81 15.954c0 6.617 1.56 11.968 4.81 15.955l1.6-1.092c-2.9-3.571-4.41-8.493-4.41-14.863h-2zm4.81 15.955c3.27 4.019 7.75 6.037 13.36 6.037V85.18c-4.99 0-8.88-1.76-11.76-5.3l-1.6 1.09zm81.57 58.721c-7.13 0-12.89-2.408-17.36-7.236l-1.53 1.182c4.86 5.251 11.19 7.882 18.89 7.882v-1.828zm-17.36-7.229c-4.48-4.936-6.76-11.401-6.76-19.476h-2c0 8.399 2.38 15.308 7.23 20.644l1.53-1.168zm-6.76-19.476c0-8.077 2.28-14.488 6.76-19.325l-1.53-1.18c-4.85 5.241-7.23 12.106-7.23 20.505h2zm6.76-19.331c4.47-4.923 10.23-7.374 17.36-7.374v-1.829c-7.71 0-14.04 2.685-18.89 8.034l1.53 1.169zm17.36-7.374c7.24 0 12.99 2.453 17.35 7.366l1.55-1.152c-4.75-5.36-11.09-8.043-18.9-8.043v1.829zm17.36 7.38c4.48 4.837 6.76 11.248 6.76 19.325h2c0-8.399-2.38-15.264-7.23-20.506l-1.53 1.181zm6.76 19.325c0 8.075-2.28 14.54-6.76 19.476l1.54 1.168c4.84-5.336 7.22-12.245 7.22-20.644h-2zm-6.76 19.478c-4.36 4.817-10.11 7.227-17.36 7.227v1.828c7.81 0 14.14-2.629 18.9-7.891l-1.54-1.164zm-17.36 2.514c5.61 0 10.1-2.019 13.36-6.038l-1.6-1.092c-2.88 3.54-6.76 5.301-11.76 5.301v1.829zm13.36-6.038c3.25-3.987 4.81-9.338 4.81-15.954h-2c0 6.369-1.51 11.291-4.41 14.862l1.6 1.092zm4.81-15.954c0-6.617-1.56-11.968-4.81-15.955l-1.6 1.092c2.9 3.572 4.41 8.493 4.41 14.863h2zm-4.81-15.955c-3.26-4.019-7.75-6.037-13.36-6.037v1.828c5 0 8.88 1.76 11.76 5.3l1.6-1.09zm-13.36-6.037c-5.5 0-9.98 2.022-13.35 6.025l1.58 1.116c2.99-3.556 6.89-5.313 11.77-5.313v-1.828zm-13.35 6.028c-3.26 3.898-4.82 9.256-4.82 15.964h2c0-6.472 1.51-11.386 4.4-14.854l-1.58-1.11zm-4.82 15.964c0 6.709 1.56 12.11 4.81 16.099l1.6-1.091c-2.9-3.569-4.41-8.538-4.41-15.008h-2zm4.83 16.12c3.37 3.905 7.85 5.872 13.34 5.872v-1.829c-4.89 0-8.79-1.716-11.78-5.176l-1.56 1.133zm-193.15 300.639l-.78.576v.007l.01.008.77-.591zm0-39.975l-.77-.584-.01.002.78.582zm36.41-.145l.76-.591-.76.591zm0 40.12l.76.591-.76-.591zm49.29-46.953v-.914h-.53l-.3.399.83.515zm9.38 0l.82.516 1.07-1.43h-1.89v.914zm-76 101.756v.914h.52l.3-.399-.82-.515zm-9.39 0l-.82-.516-1.07 1.43h1.89v-.914zm20.99-59.309l-.79-.558v.003l.79.555zm0-30.963l-.8.546.01.01.01.011.78-.567zm-24.96 0l-.8-.546.8.546zm62.65 83.439l-.77.585v.006l.77-.591zm0-39.975l.76.591v-.007l-.76-.584zm36.25 0l-.78.576.01.007v.008l.77-.591zm0 39.975l-.77-.584v.002l.77.582zm-5.57-4.651l-.8-.546.8.546zm0-30.818l-.8.546.8-.546zm-25.12 0l-.79-.557v.003l.79.554zm0 30.963l-.8.546.01.01.01.011.78-.567zm-55.65-36.819c-7.25 0-13.06-2.411-17.52-7.235l-1.53 1.181c4.86 5.254 11.24 7.882 19.05 7.882v-1.828zm-17.51-7.221c-4.38-4.937-6.61-11.404-6.61-19.484h-2c0 8.394 2.32 15.301 7.06 20.636l1.55-1.152zm-6.61-19.484c0-8.081 2.23-14.496 6.61-19.333l-1.55-1.164c-4.74 5.242-7.06 12.103-7.06 20.497h2zm6.6-19.331c4.47-4.919 10.28-7.374 17.52-7.374v-1.829c-7.81 0-14.19 2.682-19.05 8.035l1.53 1.168zm17.52-7.374c7.14 0 12.89 2.408 17.36 7.235l1.53-1.181c-4.86-5.251-11.19-7.883-18.89-7.883v1.829zm17.36 7.235c4.48 4.835 6.76 11.294 6.76 19.47h2c0-8.493-2.38-15.407-7.23-20.651l-1.53 1.181zm6.76 19.47c0 8.176-2.28 14.635-6.76 19.47l1.53 1.181c4.85-5.244 7.23-12.159 7.23-20.651h-2zm-6.76 19.47c-4.47 4.827-10.22 7.235-17.36 7.235v1.828c7.7 0 14.03-2.631 18.89-7.882l-1.53-1.181zm50.06-45.448h9.38v-1.829h-9.38v1.829zm8.55-1.43l-76 101.755 1.65 1.031 76-101.755-1.65-1.031zm-75.17 101.356h-9.39v1.829h9.39v-1.829zm-8.56 1.43l76-101.755-1.65-1.031-76 101.755 1.65 1.031zm7.76-53.386c5.5 0 9.93-1.968 13.2-5.883l-1.59-1.11c-2.88 3.449-6.72 5.164-11.61 5.164v1.829zm13.19-5.88c3.36-3.991 4.98-9.396 4.98-16.112h-2c0 6.464-1.56 11.428-4.56 14.996l1.58 1.116zm4.98-16.112c0-6.714-1.62-12.077-4.98-15.976l-1.57 1.134c2.99 3.467 4.55 8.376 4.55 14.842h2zm-4.97-15.955c-3.26-4.013-7.69-6.037-13.2-6.037v1.828c4.88 0 8.72 1.756 11.6 5.301l1.6-1.092zm-13.2-6.037c-5.61 0-10.09 2.018-13.36 6.037l1.6 1.092c2.88-3.54 6.77-5.301 11.76-5.301v-1.828zm-13.36 6.037c-3.25 3.987-4.81 9.338-4.81 15.955h2c0-6.37 1.51-11.291 4.41-14.863l-1.6-1.092zm-4.81 15.955c0 6.616 1.56 11.967 4.81 15.954l1.6-1.091c-2.9-3.572-4.41-8.494-4.41-14.863h-2zm4.81 15.954c3.27 4.019 7.75 6.038 13.36 6.038v-1.829c-4.99 0-8.88-1.76-11.76-5.3l-1.6 1.091zm81.57 58.721c-7.13 0-12.89-2.408-17.36-7.235l-1.53 1.181c4.86 5.251 11.19 7.883 18.89 7.883v-1.829zm-17.36-7.229c-4.48-4.936-6.76-11.4-6.76-19.476h-2c0 8.399 2.38 15.308 7.23 20.645l1.53-1.169zm-6.76-19.476c0-8.076 2.28-14.488 6.76-19.324l-1.53-1.181c-4.85 5.242-7.23 12.107-7.23 20.505h2zm6.76-19.331c4.47-4.923 10.23-7.374 17.36-7.374v-1.828c-7.71 0-14.04 2.685-18.89 8.034l1.53 1.168zm17.36-7.374c7.24 0 12.99 2.454 17.35 7.366l1.55-1.152c-4.75-5.36-11.09-8.042-18.9-8.042v1.828zm17.36 7.381c4.48 4.836 6.76 11.248 6.76 19.324h2c0-8.398-2.38-15.263-7.23-20.505l-1.53 1.181zm6.76 19.324c0 8.076-2.28 14.54-6.76 19.476l1.54 1.169c4.84-5.337 7.22-12.246 7.22-20.645h-2zm-6.76 19.478c-4.36 4.817-10.11 7.227-17.36 7.227v1.829c7.81 0 14.14-2.63 18.9-7.891l-1.54-1.165zm-17.36 2.514c5.61 0 10.1-2.018 13.36-6.037l-1.6-1.092c-2.88 3.54-6.76 5.301-11.76 5.301v1.828zm13.36-6.037c3.25-3.987 4.81-9.339 4.81-15.955h-2c0 6.37-1.51 11.291-4.41 14.863l1.6 1.092zm4.81-15.955c0-6.616-1.56-11.967-4.81-15.954l-1.6 1.091c2.9 3.572 4.41 8.494 4.41 14.863h2zm-4.81-15.954c-3.26-4.019-7.75-6.038-13.36-6.038v1.829c5 0 8.88 1.76 11.76 5.3l1.6-1.091zm-13.36-6.038c-5.5 0-9.98 2.022-13.35 6.026l1.58 1.115c2.99-3.555 6.89-5.312 11.77-5.312v-1.829zm-13.35 6.029c-3.26 3.897-4.82 9.255-4.82 15.963h2c0-6.472 1.51-11.386 4.4-14.854l-1.58-1.109zm-4.82 15.963c0 6.71 1.56 12.11 4.81 16.1l1.6-1.092c-2.9-3.569-4.41-8.538-4.41-15.008h-2zm4.83 16.121c3.37 3.905 7.85 5.871 13.34 5.871v-1.828c-4.89 0-8.79-1.716-11.78-5.177l-1.56 1.134z"/><path fill="#35221A" fill-opacity=".5" d="M339.11 56.3c-5.647 0-10.267-1.744-13.86-5.23-3.52-3.554-5.28-8.28-5.28-14.18s1.76-10.593 5.28-14.08c3.593-3.553 8.213-5.33 13.86-5.33s10.23 1.777 13.75 5.33c3.52 3.487 5.28 8.18 5.28 14.08s-1.76 10.626-5.28 14.18c-3.52 3.486-8.103 5.23-13.75 5.23zm45.87-38.015h13.09l-52.58 70.397H332.4l52.58-70.397zm-45.87 29.768c2.493 0 4.437-.939 5.83-2.816 1.467-1.877 2.2-4.66 2.2-8.347 0-3.688-.733-6.47-2.2-8.347-1.393-1.877-3.337-2.816-5.83-2.816-2.42 0-4.363.972-5.83 2.916-1.467 1.878-2.2 4.626-2.2 8.247 0 3.62.733 6.402 2.2 8.347 1.467 1.877 3.41 2.816 5.83 2.816zm52.25 41.433c-3.667 0-6.967-.77-9.9-2.313-2.86-1.609-5.097-3.888-6.71-6.838-1.613-2.95-2.42-6.37-2.42-10.258 0-3.889.807-7.308 2.42-10.258 1.613-2.95 3.85-5.196 6.71-6.738 2.933-1.609 6.233-2.414 9.9-2.414 5.647 0 10.23 1.777 13.75 5.33 3.593 3.487 5.39 8.18 5.39 14.08s-1.797 10.626-5.39 14.18c-3.52 3.486-8.103 5.23-13.75 5.23zm0-8.246c2.493 0 4.437-.939 5.83-2.816 1.467-1.945 2.2-4.727 2.2-8.347 0-3.62-.733-6.37-2.2-8.247-1.393-1.944-3.337-2.916-5.83-2.916-2.42 0-4.363.939-5.83 2.816-1.467 1.877-2.2 4.66-2.2 8.347 0 3.687.733 6.47 2.2 8.347 1.467 1.877 3.41 2.816 5.83 2.816zM201.11 554.561c-5.647 0-10.267-1.744-13.86-5.23-3.52-3.553-5.28-8.28-5.28-14.179 0-5.9 1.76-10.594 5.28-14.08 3.593-3.553 8.213-5.33 13.86-5.33s10.23 1.777 13.75 5.33c3.52 3.486 5.28 8.18 5.28 14.08 0 5.899-1.76 10.626-5.28 14.179-3.52 3.486-8.103 5.23-13.75 5.23zm45.87-38.014h13.09l-52.58 70.396H194.4l52.58-70.396zm-45.87 29.767c2.493 0 4.437-.938 5.83-2.815 1.467-1.877 2.2-4.66 2.2-8.347 0-3.688-.733-6.471-2.2-8.348-1.393-1.876-3.337-2.815-5.83-2.815-2.42 0-4.363.972-5.83 2.916-1.467 1.877-2.2 4.626-2.2 8.247 0 3.62.733 6.402 2.2 8.347 1.467 1.877 3.41 2.815 5.83 2.815zm52.25 41.434c-3.667 0-6.967-.771-9.9-2.313-2.86-1.609-5.097-3.888-6.71-6.839-1.613-2.95-2.42-6.369-2.42-10.257 0-3.889.807-7.308 2.42-10.258 1.613-2.951 3.85-5.196 6.71-6.738 2.933-1.609 6.233-2.414 9.9-2.414 5.647 0 10.23 1.777 13.75 5.33 3.593 3.486 5.39 8.18 5.39 14.08 0 5.899-1.797 10.626-5.39 14.179-3.52 3.486-8.103 5.23-13.75 5.23zm0-8.247c2.493 0 4.437-.938 5.83-2.815 1.467-1.945 2.2-4.727 2.2-8.347 0-3.621-.733-6.37-2.2-8.247-1.393-1.945-3.337-2.916-5.83-2.916-2.42 0-4.363.939-5.83 2.816-1.467 1.876-2.2 4.659-2.2 8.347 0 3.687.733 6.47 2.2 8.347 1.467 1.877 3.41 2.815 5.83 2.815zm367.75-390.637c-5.647 0-10.267-1.743-13.86-5.229-3.52-3.554-5.28-8.281-5.28-14.18 0-5.9 1.76-10.594 5.28-14.08 3.593-3.553 8.213-5.33 13.86-5.33s10.23 1.777 13.75 5.33c3.52 3.486 5.28 8.18 5.28 14.08 0 5.899-1.76 10.626-5.28 14.18-3.52 3.486-8.103 5.229-13.75 5.229zm45.87-38.014h13.09l-52.58 70.397H614.4l52.58-70.397zm-45.87 29.768c2.493 0 4.437-.939 5.83-2.816 1.467-1.877 2.2-4.66 2.2-8.347 0-3.687-.733-6.47-2.2-8.347-1.393-1.877-3.337-2.816-5.83-2.816-2.42 0-4.363.972-5.83 2.916-1.467 1.877-2.2 4.626-2.2 8.247 0 3.62.733 6.402 2.2 8.347 1.467 1.877 3.41 2.816 5.83 2.816zm52.25 41.433c-3.667 0-6.967-.771-9.9-2.313-2.86-1.609-5.097-3.888-6.71-6.838-1.613-2.951-2.42-6.37-2.42-10.258 0-3.889.807-7.308 2.42-10.258 1.613-2.95 3.85-5.196 6.71-6.738 2.933-1.609 6.233-2.414 9.9-2.414 5.647 0 10.23 1.777 13.75 5.33 3.593 3.486 5.39 8.18 5.39 14.08 0 5.899-1.797 10.626-5.39 14.18-3.52 3.486-8.103 5.229-13.75 5.229zm0-8.246c2.493 0 4.437-.939 5.83-2.816 1.467-1.945 2.2-4.727 2.2-8.347 0-3.621-.733-6.37-2.2-8.247-1.393-1.944-3.337-2.916-5.83-2.916-2.42 0-4.363.939-5.83 2.816-1.467 1.877-2.2 4.66-2.2 8.347 0 3.687.733 6.47 2.2 8.347 1.467 1.877 3.41 2.816 5.83 2.816zM964.11 83.726c-5.647 0-10.267-1.743-13.86-5.229-3.52-3.553-5.28-8.28-5.28-14.18s1.76-10.593 5.28-14.08c3.593-3.553 8.213-5.33 13.86-5.33s10.23 1.777 13.75 5.33c3.52 3.487 5.28 8.18 5.28 14.08s-1.76 10.627-5.28 14.18c-3.52 3.486-8.103 5.23-13.75 5.23zm45.87-38.014h13.09l-52.58 70.397H957.4l52.58-70.397zM964.11 75.48c2.493 0 4.437-.939 5.83-2.816 1.467-1.877 2.2-4.66 2.2-8.347 0-3.687-.733-6.47-2.2-8.347-1.393-1.877-3.337-2.816-5.83-2.816-2.42 0-4.363.972-5.83 2.917-1.467 1.877-2.2 4.626-2.2 8.246s.733 6.403 2.2 8.347c1.467 1.877 3.41 2.816 5.83 2.816zm52.25 41.433c-3.67 0-6.97-.77-9.9-2.313-2.86-1.609-5.1-3.888-6.71-6.838-1.613-2.95-2.42-6.37-2.42-10.258 0-3.888.807-7.308 2.42-10.258 1.61-2.95 3.85-5.196 6.71-6.738 2.93-1.609 6.23-2.413 9.9-2.413 5.65 0 10.23 1.776 13.75 5.33 3.59 3.486 5.39 8.18 5.39 14.08 0 5.899-1.8 10.625-5.39 14.179-3.52 3.486-8.1 5.229-13.75 5.229zm0-8.246c2.49 0 4.44-.939 5.83-2.816 1.47-1.944 2.2-4.727 2.2-8.347 0-3.62-.73-6.37-2.2-8.246-1.39-1.945-3.34-2.917-5.83-2.917-2.42 0-4.36.939-5.83 2.816-1.47 1.877-2.2 4.66-2.2 8.347 0 3.687.73 6.47 2.2 8.347 1.47 1.877 3.41 2.816 5.83 2.816zm486.75 225.562c-5.65 0-10.27-1.744-13.86-5.23-3.52-3.553-5.28-8.28-5.28-14.179 0-5.9 1.76-10.594 5.28-14.08 3.59-3.553 8.21-5.33 13.86-5.33 5.65 0 10.23 1.777 13.75 5.33 3.52 3.486 5.28 8.18 5.28 14.08 0 5.899-1.76 10.626-5.28 14.179-3.52 3.486-8.1 5.23-13.75 5.23zm45.87-38.014h13.09l-52.58 70.396h-13.09l52.58-70.396zm-45.87 29.767c2.49 0 4.44-.939 5.83-2.815 1.47-1.877 2.2-4.66 2.2-8.347 0-3.688-.73-6.471-2.2-8.348-1.39-1.876-3.34-2.815-5.83-2.815-2.42 0-4.36.971-5.83 2.916-1.47 1.877-2.2 4.626-2.2 8.247 0 3.62.73 6.402 2.2 8.347 1.47 1.876 3.41 2.815 5.83 2.815zm52.25 41.434c-3.67 0-6.97-.771-9.9-2.313-2.86-1.609-5.1-3.888-6.71-6.839-1.61-2.95-2.42-6.369-2.42-10.258 0-3.888.81-7.307 2.42-10.257 1.61-2.951 3.85-5.196 6.71-6.738 2.93-1.609 6.23-2.414 9.9-2.414 5.65 0 10.23 1.777 13.75 5.33 3.59 3.486 5.39 8.18 5.39 14.079 0 5.9-1.8 10.627-5.39 14.18-3.52 3.486-8.1 5.23-13.75 5.23zm0-8.247c2.49 0 4.44-.939 5.83-2.815 1.47-1.945 2.2-4.727 2.2-8.348 0-3.62-.73-6.369-2.2-8.246-1.39-1.945-3.34-2.916-5.83-2.916-2.42 0-4.36.939-5.83 2.815-1.47 1.877-2.2 4.66-2.2 8.347 0 3.688.73 6.471 2.2 8.348 1.47 1.876 3.41 2.815 5.83 2.815zM94.065 245.081c-3.337 0-6.067-1.03-8.19-3.09-2.08-2.1-3.12-4.893-3.12-8.379 0-3.486 1.04-6.26 3.12-8.32 2.123-2.1 4.853-3.149 8.19-3.149 3.337 0 6.045 1.049 8.125 3.149 2.08 2.06 3.12 4.834 3.12 8.32 0 3.486-1.04 6.279-3.12 8.379-2.08 2.06-4.788 3.09-8.125 3.09zm27.105-22.463h7.735l-31.07 41.598H90.1l31.07-41.598zm-27.105 17.59c1.473 0 2.622-.555 3.445-1.664.867-1.109 1.3-2.754 1.3-4.932 0-2.179-.433-3.824-1.3-4.933-.823-1.109-1.972-1.664-3.445-1.664-1.43 0-2.578.575-3.445 1.724-.867 1.109-1.3 2.733-1.3 4.873 0 2.139.433 3.783 1.3 4.932.867 1.109 2.015 1.664 3.445 1.664zm30.875 24.483c-2.167 0-4.117-.455-5.85-1.366-1.69-.951-3.012-2.298-3.965-4.041-.953-1.744-1.43-3.764-1.43-6.062 0-2.297.477-4.318 1.43-6.061.953-1.744 2.275-3.07 3.965-3.982 1.733-.951 3.683-1.426 5.85-1.426 3.337 0 6.045 1.05 8.125 3.15 2.123 2.059 3.185 4.833 3.185 8.319 0 3.486-1.062 6.279-3.185 8.379-2.08 2.06-4.788 3.09-8.125 3.09zm0-4.873c1.473 0 2.622-.554 3.445-1.663.867-1.15 1.3-2.793 1.3-4.933 0-2.139-.433-3.764-1.3-4.873-.823-1.149-1.972-1.723-3.445-1.723-1.43 0-2.578.555-3.445 1.664s-1.3 2.754-1.3 4.932c0 2.179.433 3.824 1.3 4.933s2.015 1.663 3.445 1.663zM26.065 101.545c-3.337 0-6.067-1.031-8.19-3.09-2.08-2.1-3.12-4.893-3.12-8.38 0-3.486 1.04-6.259 3.12-8.319 2.123-2.1 4.853-3.15 8.19-3.15 3.337 0 6.045 1.05 8.125 3.15 2.08 2.06 3.12 4.833 3.12 8.32 0 3.486-1.04 6.279-3.12 8.379-2.08 2.059-4.788 3.09-8.125 3.09zM53.17 79.082h7.735l-31.07 41.598H22.1l31.07-41.598zm-27.105 17.59c1.473 0 2.622-.555 3.445-1.664.867-1.109 1.3-2.754 1.3-4.932 0-2.18-.433-3.823-1.3-4.933-.823-1.109-1.972-1.664-3.445-1.664-1.43 0-2.578.575-3.445 1.724-.867 1.109-1.3 2.733-1.3 4.873 0 2.139.433 3.783 1.3 4.932.867 1.109 2.015 1.664 3.445 1.664zm30.875 24.483c-2.167 0-4.117-.455-5.85-1.367-1.69-.95-3.012-2.297-3.965-4.04-.953-1.744-1.43-3.764-1.43-6.062 0-2.297.477-4.318 1.43-6.061.953-1.744 2.275-3.07 3.965-3.982 1.733-.95 3.683-1.426 5.85-1.426 3.337 0 6.045 1.05 8.125 3.149 2.123 2.06 3.185 4.834 3.185 8.32 0 3.486-1.062 6.279-3.185 8.379-2.08 2.06-4.788 3.09-8.125 3.09zm0-4.873c1.473 0 2.622-.555 3.445-1.664.867-1.149 1.3-2.793 1.3-4.932 0-2.139-.433-3.764-1.3-4.873-.823-1.149-1.972-1.723-3.445-1.723-1.43 0-2.578.555-3.445 1.664s-1.3 2.753-1.3 4.932c0 2.179.433 3.823 1.3 4.932.867 1.109 2.015 1.664 3.445 1.664zm2.125 354.617c-3.337 0-6.067-1.031-8.19-3.09-2.08-2.1-3.12-4.893-3.12-8.379 0-3.486 1.04-6.26 3.12-8.32 2.123-2.1 4.853-3.15 8.19-3.15 3.337 0 6.045 1.05 8.125 3.15 2.08 2.06 3.12 4.834 3.12 8.32 0 3.486-1.04 6.279-3.12 8.379-2.08 2.059-4.788 3.09-8.125 3.09zm27.105-22.463h7.735l-31.07 41.598H55.1l31.07-41.598zm-27.105 17.59c1.473 0 2.622-.555 3.445-1.664.867-1.109 1.3-2.754 1.3-4.932 0-2.179-.433-3.824-1.3-4.933-.823-1.109-1.972-1.664-3.445-1.664-1.43 0-2.578.574-3.445 1.724-.867 1.109-1.3 2.733-1.3 4.873 0 2.139.433 3.783 1.3 4.932.867 1.109 2.015 1.664 3.445 1.664zm30.875 24.483c-2.167 0-4.117-.455-5.85-1.367-1.69-.95-3.012-2.297-3.965-4.04-.953-1.744-1.43-3.764-1.43-6.062 0-2.297.477-4.318 1.43-6.061.953-1.744 2.275-3.07 3.965-3.982 1.733-.951 3.683-1.426 5.85-1.426 3.337 0 6.045 1.049 8.125 3.149 2.123 2.06 3.185 4.834 3.185 8.32 0 3.486-1.062 6.279-3.185 8.379-2.08 2.06-4.788 3.09-8.125 3.09zm0-4.873c1.473 0 2.622-.555 3.445-1.664.867-1.149 1.3-2.793 1.3-4.932 0-2.139-.433-3.764-1.3-4.873-.823-1.149-1.972-1.723-3.445-1.723-1.43 0-2.578.555-3.445 1.664s-1.3 2.753-1.3 4.932c0 2.179.433 3.823 1.3 4.932.867 1.109 2.015 1.664 3.445 1.664zm373.125-370.377c-3.337 0-6.067-1.031-8.19-3.091-2.08-2.1-3.12-4.893-3.12-8.379 0-3.486 1.04-6.26 3.12-8.32 2.123-2.1 4.853-3.149 8.19-3.149 3.337 0 6.045 1.05 8.125 3.15 2.08 2.06 3.12 4.833 3.12 8.319 0 3.486-1.04 6.279-3.12 8.379-2.08 2.06-4.788 3.091-8.125 3.091zm27.105-22.463h7.735l-31.07 41.598H459.1l31.07-41.598zm-27.105 17.59c1.473 0 2.622-.555 3.445-1.664.867-1.109 1.3-2.754 1.3-4.933 0-2.178-.433-3.823-1.3-4.932-.823-1.109-1.972-1.664-3.445-1.664-1.43 0-2.578.574-3.445 1.724-.867 1.109-1.3 2.733-1.3 4.872 0 2.14.433 3.784 1.3 4.933.867 1.109 2.015 1.664 3.445 1.664zm30.875 24.483c-2.167 0-4.117-.455-5.85-1.367-1.69-.95-3.012-2.297-3.965-4.041-.953-1.743-1.43-3.764-1.43-6.061 0-2.298.477-4.318 1.43-6.061.953-1.744 2.275-3.07 3.965-3.982 1.733-.951 3.683-1.426 5.85-1.426 3.337 0 6.045 1.049 8.125 3.149 2.123 2.06 3.185 4.834 3.185 8.32 0 3.486-1.062 6.279-3.185 8.379-2.08 2.06-4.788 3.09-8.125 3.09zm0-4.873c1.473 0 2.622-.555 3.445-1.664.867-1.149 1.3-2.793 1.3-4.932 0-2.139-.433-3.764-1.3-4.873-.823-1.149-1.972-1.723-3.445-1.723-1.43 0-2.578.555-3.445 1.664s-1.3 2.753-1.3 4.932c0 2.179.433 3.823 1.3 4.932.867 1.109 2.015 1.664 3.445 1.664zM815.065.064c-3.337 0-6.067-1.03-8.19-3.09-2.08-2.1-3.12-4.893-3.12-8.379 0-3.486 1.04-6.26 3.12-8.32 2.123-2.1 4.853-3.149 8.19-3.149 3.337 0 6.045 1.05 8.125 3.15 2.08 2.06 3.12 4.833 3.12 8.32 0 3.485-1.04 6.278-3.12 8.378-2.08 2.06-4.788 3.09-8.125 3.09zm27.105-22.463h7.735L818.835 19.2H811.1l31.07-41.598zm-27.105 17.59c1.473 0 2.622-.554 3.445-1.664.867-1.109 1.3-2.753 1.3-4.932 0-2.179-.433-3.823-1.3-4.932-.823-1.11-1.972-1.664-3.445-1.664-1.43 0-2.578.574-3.445 1.723-.867 1.11-1.3 2.734-1.3 4.873 0 2.14.433 3.784 1.3 4.932.867 1.11 2.015 1.664 3.445 1.664zm30.875 24.484c-2.167 0-4.117-.456-5.85-1.367-1.69-.95-3.012-2.298-3.965-4.04-.953-1.744-1.43-3.765-1.43-6.062 0-2.298.477-4.319 1.43-6.062.953-1.743 2.275-3.07 3.965-3.981 1.733-.951 3.683-1.427 5.85-1.427 3.337 0 6.045 1.05 8.125 3.15 2.123 2.06 3.185 4.833 3.185 8.32 0 3.486-1.062 6.279-3.185 8.379-2.08 2.06-4.788 3.09-8.125 3.09zm0-4.873c1.473 0 2.622-.555 3.445-1.664.867-1.149 1.3-2.793 1.3-4.932 0-2.14-.433-3.764-1.3-4.873-.823-1.15-1.972-1.724-3.445-1.724-1.43 0-2.578.555-3.445 1.664-.867 1.11-1.3 2.754-1.3 4.933 0 2.178.433 3.823 1.3 4.932.867 1.11 2.015 1.664 3.445 1.664zM719.065 272.508c-3.337 0-6.067-1.03-8.19-3.09-2.08-2.1-3.12-4.893-3.12-8.379 0-3.486 1.04-6.26 3.12-8.32 2.123-2.1 4.853-3.149 8.19-3.149 3.337 0 6.045 1.049 8.125 3.149 2.08 2.06 3.12 4.834 3.12 8.32 0 3.486-1.04 6.279-3.12 8.379-2.08 2.06-4.788 3.09-8.125 3.09zm27.105-22.463h7.735l-31.07 41.598H715.1l31.07-41.598zm-27.105 17.59c1.473 0 2.622-.555 3.445-1.664.867-1.109 1.3-2.753 1.3-4.932 0-2.179-.433-3.823-1.3-4.932-.823-1.109-1.972-1.664-3.445-1.664-1.43 0-2.578.574-3.445 1.723-.867 1.109-1.3 2.734-1.3 4.873 0 2.139.433 3.783 1.3 4.932.867 1.109 2.015 1.664 3.445 1.664zm30.875 24.484c-2.167 0-4.117-.456-5.85-1.367-1.69-.951-3.012-2.298-3.965-4.041-.953-1.744-1.43-3.764-1.43-6.062 0-2.297.477-4.317 1.43-6.061.953-1.743 2.275-3.07 3.965-3.981 1.733-.951 3.683-1.427 5.85-1.427 3.337 0 6.045 1.05 8.125 3.15 2.123 2.06 3.185 4.833 3.185 8.319 0 3.486-1.062 6.279-3.185 8.38-2.08 2.059-4.788 3.09-8.125 3.09zm0-4.873c1.473 0 2.622-.555 3.445-1.664.867-1.149 1.3-2.793 1.3-4.933 0-2.139-.433-3.763-1.3-4.872-.823-1.15-1.972-1.724-3.445-1.724-1.43 0-2.578.555-3.445 1.664s-1.3 2.754-1.3 4.932c0 2.179.433 3.824 1.3 4.933s2.015 1.664 3.445 1.664zm-46.875 236.679c-3.337 0-6.067-1.031-8.19-3.09-2.08-2.1-3.12-4.893-3.12-8.379 0-3.486 1.04-6.26 3.12-8.32 2.123-2.1 4.853-3.15 8.19-3.15 3.337 0 6.045 1.05 8.125 3.15 2.08 2.06 3.12 4.834 3.12 8.32 0 3.486-1.04 6.279-3.12 8.379-2.08 2.059-4.788 3.09-8.125 3.09zm27.105-22.463h7.735l-31.07 41.598H699.1l31.07-41.598zm-27.105 17.59c1.473 0 2.622-.555 3.445-1.664.867-1.109 1.3-2.754 1.3-4.932 0-2.179-.433-3.824-1.3-4.933-.823-1.109-1.972-1.664-3.445-1.664-1.43 0-2.578.574-3.445 1.724-.867 1.109-1.3 2.733-1.3 4.873 0 2.139.433 3.783 1.3 4.932.867 1.109 2.015 1.664 3.445 1.664zm30.875 24.483c-2.167 0-4.117-.455-5.85-1.367-1.69-.95-3.012-2.297-3.965-4.041-.953-1.743-1.43-3.764-1.43-6.061s.477-4.318 1.43-6.061c.953-1.744 2.275-3.07 3.965-3.982 1.733-.951 3.683-1.426 5.85-1.426 3.337 0 6.045 1.049 8.125 3.149 2.123 2.06 3.185 4.834 3.185 8.32 0 3.486-1.062 6.279-3.185 8.379-2.08 2.06-4.788 3.09-8.125 3.09zm0-4.873c1.473 0 2.622-.555 3.445-1.664.867-1.149 1.3-2.793 1.3-4.932 0-2.139-.433-3.764-1.3-4.873-.823-1.149-1.972-1.723-3.445-1.723-1.43 0-2.578.555-3.445 1.664s-1.3 2.753-1.3 4.932c0 2.179.433 3.823 1.3 4.932.867 1.109 2.015 1.664 3.445 1.664zm370.13-377.691c-3.34 0-6.07-1.031-8.19-3.091-2.08-2.1-3.12-4.893-3.12-8.379 0-3.486 1.04-6.259 3.12-8.319 2.12-2.1 4.85-3.15 8.19-3.15 3.33 0 6.04 1.05 8.12 3.15 2.08 2.06 3.12 4.833 3.12 8.319 0 3.486-1.04 6.279-3.12 8.379-2.08 2.06-4.79 3.091-8.12 3.091zm27.1-22.463h7.74l-31.07 41.598h-7.74l31.07-41.598zm-27.1 17.59c1.47 0 2.62-.555 3.44-1.664.87-1.109 1.3-2.754 1.3-4.933 0-2.178-.43-3.823-1.3-4.932-.82-1.109-1.97-1.664-3.44-1.664-1.43 0-2.58.574-3.45 1.723-.87 1.109-1.3 2.734-1.3 4.873 0 2.14.43 3.784 1.3 4.933.87 1.109 2.02 1.664 3.45 1.664zm30.87 24.483c-2.17 0-4.12-.455-5.85-1.367-1.69-.951-3.01-2.297-3.96-4.041-.96-1.743-1.43-3.764-1.43-6.061 0-2.298.47-4.318 1.43-6.062.95-1.743 2.27-3.07 3.96-3.981 1.73-.951 3.68-1.426 5.85-1.426 3.34 0 6.05 1.049 8.13 3.149 2.12 2.06 3.18 4.834 3.18 8.32 0 3.486-1.06 6.279-3.18 8.379-2.08 2.06-4.79 3.09-8.13 3.09zm0-4.873c1.47 0 2.62-.555 3.45-1.664.86-1.149 1.3-2.793 1.3-4.932 0-2.139-.44-3.764-1.3-4.873-.83-1.149-1.98-1.723-3.45-1.723-1.43 0-2.58.555-3.44 1.664-.87 1.109-1.3 2.753-1.3 4.932 0 2.179.43 3.823 1.3 4.932.86 1.109 2.01 1.664 3.44 1.664zM964.065 526.667c-3.337 0-6.067-1.03-8.19-3.09-2.08-2.1-3.12-4.893-3.12-8.379 0-3.486 1.04-6.26 3.12-8.319 2.123-2.1 4.853-3.15 8.19-3.15 3.337 0 6.045 1.05 8.125 3.15 2.08 2.059 3.12 4.833 3.12 8.319 0 3.486-1.04 6.279-3.12 8.379-2.08 2.06-4.788 3.09-8.125 3.09zm27.105-22.463h7.735l-31.07 41.598H960.1l31.07-41.598zm-27.105 17.59c1.473 0 2.622-.555 3.445-1.663.867-1.109 1.3-2.754 1.3-4.933 0-2.178-.433-3.823-1.3-4.932-.823-1.109-1.972-1.664-3.445-1.664-1.43 0-2.578.574-3.445 1.723-.867 1.109-1.3 2.734-1.3 4.873 0 2.14.433 3.783 1.3 4.933.867 1.108 2.015 1.663 3.445 1.663zm30.875 24.484c-2.167 0-4.117-.455-5.85-1.367-1.69-.951-3.012-2.297-3.965-4.041-.953-1.743-1.43-3.764-1.43-6.061 0-2.298.477-4.318 1.43-6.062.953-1.743 2.275-3.07 3.965-3.981 1.733-.951 3.683-1.426 5.85-1.426 3.337 0 6.05 1.049 8.13 3.149 2.12 2.06 3.18 4.834 3.18 8.32 0 3.486-1.06 6.279-3.18 8.379-2.08 2.06-4.793 3.09-8.13 3.09zm0-4.873c1.473 0 2.622-.555 3.445-1.664.867-1.149 1.3-2.793 1.3-4.932 0-2.14-.433-3.764-1.3-4.873-.823-1.149-1.972-1.724-3.445-1.724-1.43 0-2.578.555-3.445 1.664s-1.3 2.754-1.3 4.933c0 2.178.433 3.823 1.3 4.932.867 1.109 2.015 1.664 3.445 1.664zm383.13-363.064c-3.34 0-6.07-1.03-8.19-3.09-2.08-2.1-3.12-4.893-3.12-8.379 0-3.486 1.04-6.26 3.12-8.32 2.12-2.1 4.85-3.149 8.19-3.149 3.33 0 6.04 1.049 8.12 3.149 2.08 2.06 3.12 4.834 3.12 8.32 0 3.486-1.04 6.279-3.12 8.379-2.08 2.06-4.79 3.09-8.12 3.09zm27.1-22.463h7.74l-31.07 41.598h-7.74l31.07-41.598zm-27.1 17.59c1.47 0 2.62-.555 3.44-1.664.87-1.109 1.3-2.753 1.3-4.932 0-2.179-.43-3.823-1.3-4.932-.82-1.109-1.97-1.664-3.44-1.664-1.43 0-2.58.574-3.45 1.723-.87 1.109-1.3 2.734-1.3 4.873 0 2.139.43 3.783 1.3 4.932.87 1.109 2.02 1.664 3.45 1.664zm30.87 24.484c-2.17 0-4.12-.456-5.85-1.367-1.69-.951-3.01-2.298-3.96-4.041-.96-1.744-1.43-3.764-1.43-6.062 0-2.297.47-4.317 1.43-6.061.95-1.743 2.27-3.07 3.96-3.981 1.73-.951 3.68-1.427 5.85-1.427 3.34 0 6.05 1.05 8.13 3.15 2.12 2.06 3.18 4.833 3.18 8.319 0 3.487-1.06 6.28-3.18 8.38-2.08 2.059-4.79 3.09-8.13 3.09zm0-4.873c1.47 0 2.62-.555 3.45-1.664.86-1.149 1.3-2.793 1.3-4.933 0-2.139-.44-3.763-1.3-4.872-.83-1.15-1.98-1.724-3.45-1.724-1.43 0-2.58.555-3.44 1.664-.87 1.109-1.3 2.754-1.3 4.932 0 2.179.43 3.824 1.3 4.933.86 1.109 2.01 1.664 3.44 1.664zm-150.87 329.932c-3.34 0-6.07-1.031-8.19-3.091-2.08-2.1-3.12-4.893-3.12-8.379 0-3.486 1.04-6.259 3.12-8.319 2.12-2.1 4.85-3.15 8.19-3.15 3.33 0 6.04 1.05 8.12 3.15 2.08 2.06 3.12 4.833 3.12 8.319 0 3.486-1.04 6.279-3.12 8.379-2.08 2.06-4.79 3.091-8.12 3.091zm27.1-22.463h7.74l-31.07 41.598h-7.74l31.07-41.598zm-27.1 17.59c1.47 0 2.62-.555 3.44-1.664.87-1.109 1.3-2.754 1.3-4.933 0-2.178-.43-3.823-1.3-4.932-.82-1.109-1.97-1.664-3.44-1.664-1.43 0-2.58.574-3.45 1.724-.87 1.109-1.3 2.733-1.3 4.872 0 2.14.43 3.784 1.3 4.933.87 1.109 2.02 1.664 3.45 1.664zm30.87 24.483c-2.17 0-4.12-.455-5.85-1.367-1.69-.951-3.01-2.297-3.96-4.041-.96-1.743-1.43-3.764-1.43-6.061 0-2.298.47-4.318 1.43-6.062.95-1.743 2.27-3.07 3.96-3.981 1.73-.951 3.68-1.426 5.85-1.426 3.34 0 6.05 1.049 8.13 3.149 2.12 2.06 3.18 4.834 3.18 8.32 0 3.486-1.06 6.279-3.18 8.379-2.08 2.06-4.79 3.09-8.13 3.09zm0-4.873c1.47 0 2.62-.555 3.45-1.664.86-1.149 1.3-2.793 1.3-4.932 0-2.139-.44-3.764-1.3-4.873-.83-1.149-1.98-1.723-3.45-1.723-1.43 0-2.58.555-3.44 1.664-.87 1.109-1.3 2.753-1.3 4.932 0 2.179.43 3.823 1.3 4.932.86 1.109 2.01 1.664 3.44 1.664z"/><path fill="#271A14" fill-opacity=".3" d="M4.875 299.588l-.741.614.006.007.007.006.728-.627zm0-16.699l-.734-.62v.001l.734.619zm16.315 0l-.741.614.006.006.735-.62zm0 16.699l.735.62.006-.006-.741-.614zm18.98-19.373v-.914h-.528l-.298.399.826.515zm7.735 0l.826.516 1.068-1.43h-1.894v.914zm-31.07 41.598v.915h.528l.298-.399-.826-.516zm-7.735 0l-.826-.515-1.068 1.43H9.1v-.915zm7.41-25.672l-.814-.531-.007.009-.007.009.828.513zm0-9.864l-.828.513.007.009.007.009.814-.531zm-6.89.059l.814.531.005-.005.004-.007-.823-.519zm0 9.805l-.823.52.004.006.005.006.814-.532zm28.47 24.781l-.524.779.013.006.013.008.498-.793zm-3.965-4.041l.894-.409-.894.409zm0-12.123l.894.409-.894-.409zm3.965-3.981l.508.787.007-.004-.515-.783zm13.975 1.723l-.741.613.006.008.007.006.728-.627zm0 16.699l-.734-.621v.001l.734.62zm-4.68-3.447l-.823-.519-.005.005.828.514zm0-9.805l-.837.501.012.015.011.015.814-.531zm-6.89-.06l.814.531-.814-.531zm-27.43-4.123c-3.085 0-5.544-.942-7.462-2.803l-1.456 1.254c2.328 2.258 5.33 3.377 8.918 3.377v-1.828zm-7.449-2.789c-1.877-1.896-2.861-4.452-2.861-7.766h-2c0 3.659 1.096 6.689 3.379 8.993l1.482-1.227zm-2.861-7.766c0-3.315.984-5.846 2.855-7.7l-1.47-1.239c-2.29 2.267-3.385 5.281-3.385 8.939h2zm2.854-7.699c1.92-1.899 4.377-2.856 7.456-2.856v-1.828c-3.595 0-6.598 1.142-8.924 3.443l1.468 1.241zm7.456-2.856c3.079 0 5.51.956 7.384 2.849l1.482-1.227c-2.285-2.308-5.271-3.45-8.866-3.45v1.828zm7.39 2.855c1.87 1.854 2.855 4.385 2.855 7.7h2c0-3.658-1.096-6.672-3.385-8.939l-1.47 1.239zm2.855 7.7c0 3.314-.984 5.87-2.861 7.766l1.482 1.227c2.283-2.304 3.379-5.334 3.379-8.993h-2zm-2.855 7.759c-1.873 1.855-4.305 2.796-7.39 2.796v1.828c3.588 0 6.573-1.119 8.86-3.384l-1.47-1.24zM40.17 281.13h7.735v-1.829H40.17v1.829zm6.91-1.43l-31.07 41.598 1.65 1.031 31.07-41.598-1.65-1.031zm-30.245 41.199H9.1v1.829h7.735v-1.829zm-6.91 1.43l31.07-41.598-1.65-1.031-31.07 41.598 1.65 1.031zm3.14-23.609c1.803 0 3.262-.703 4.272-2.065l-1.655-1.027c-.636.857-1.473 1.263-2.617 1.263v1.829zm4.259-2.047c1.04-1.332 1.486-3.199 1.486-5.464h-2c0 2.094-.421 3.514-1.114 4.401l1.628 1.063zm1.486-5.464c0-2.265-.445-4.131-1.486-5.463l-1.628 1.062c.693.887 1.114 2.307 1.114 4.401h2zm-1.473-5.446c-1.01-1.361-2.47-2.064-4.272-2.064v1.828c1.144 0 1.981.406 2.617 1.263l1.655-1.027zm-4.272-2.064c-1.784 0-3.23.742-4.268 2.118l1.646 1.038c.695-.921 1.546-1.328 2.622-1.328v-1.828zm-4.259 2.106c-1.039 1.329-1.486 3.175-1.486 5.404h2c0-2.05.42-3.453 1.114-4.342l-1.628-1.062zm-1.486 5.404c0 2.233.449 4.089 1.477 5.452l1.646-1.039c-.705-.934-1.123-2.367-1.123-4.413h-2zm1.486 5.464c1.045 1.337 2.49 2.047 4.259 2.047v-1.829c-1.091 0-1.943-.399-2.631-1.281l-1.628 1.063zm35.134 24.701c-2.007 0-3.782-.42-5.351-1.245l-.997 1.586c1.897.997 4.022 1.488 6.348 1.488v-1.829zm-5.326-1.231c-1.52-.855-2.718-2.068-3.595-3.671l-1.788.818c1.03 1.884 2.474 3.364 4.335 4.411l1.048-1.558zm-3.595-3.671c-.872-1.595-1.324-3.471-1.324-5.652h-2c0 2.414.501 4.579 1.536 6.47l1.788-.818zm-1.324-5.652c0-2.182.452-4.058 1.324-5.653l-1.788-.818c-1.035 1.891-1.536 4.056-1.536 6.471h2zm1.324-5.653c.875-1.6 2.07-2.789 3.579-3.603l-1.016-1.575c-1.87 1.009-3.32 2.473-4.351 4.36l1.788.818zm3.586-3.607c1.566-.859 3.336-1.295 5.335-1.295v-1.829c-2.334 0-4.465.515-6.364 1.557l1.029 1.567zm5.335-1.295c3.079 0 5.51.956 7.384 2.848l1.482-1.226c-2.285-2.308-5.271-3.451-8.866-3.451v1.829zm7.397 2.862c1.91 1.853 2.913 4.382 2.913 7.693h2c0-3.663-1.12-6.68-3.457-8.947l-1.456 1.254zm2.913 7.693c0 3.309-1.002 5.863-2.92 7.758l1.47 1.241c2.33-2.304 3.45-5.336 3.45-8.999h-2zm-2.92 7.759c-1.873 1.855-4.305 2.795-7.39 2.795v1.829c3.588 0 6.573-1.119 8.86-3.385l-1.47-1.239zm-7.39-.249c1.803 0 3.262-.703 4.273-2.064l-1.656-1.028c-.636.858-1.473 1.264-2.617 1.264v1.828zm4.268-2.059c1.028-1.363 1.477-3.219 1.477-5.451h-2c0 2.046-.418 3.478-1.123 4.413l1.646 1.038zm1.477-5.451c0-2.229-.447-4.075-1.486-5.405l-1.628 1.063c.695.888 1.114 2.292 1.114 4.342h2zm-1.464-5.374c-1.003-1.401-2.462-2.137-4.281-2.137v1.829c1.128 0 1.966.413 2.608 1.31l1.673-1.002zm-4.281-2.137c-1.769 0-3.214.71-4.259 2.047l1.628 1.062c.688-.881 1.54-1.28 2.631-1.28v-1.829zm-4.259 2.047c-1.04 1.332-1.486 3.199-1.486 5.464h2c0-2.094.421-3.515 1.114-4.402l-1.628-1.062zm-1.486 5.464c0 2.264.445 4.131 1.486 5.463l1.628-1.062c-.693-.887-1.114-2.308-1.114-4.401h-2zm1.486 5.463c1.045 1.338 2.49 2.047 4.259 2.047v-1.828c-1.091 0-1.943-.4-2.631-1.281l-1.628 1.062zm-69.806 209.123l-.741.614.006.007.007.006.728-.627zm0-16.699l-.734-.62v.001l.734.619zm16.315 0l-.741.614.006.006.735-.62zm0 16.699l.735.62.006-.006-.741-.614zm18.98-19.373v-.914h-.528l-.298.399.826.515zm7.735 0l.826.516 1.068-1.43h-1.894v.914zm-31.07 41.598v.915h.528l.298-.399-.826-.516zm-7.735 0l-.826-.515-1.068 1.43h1.894v-.915zm7.41-25.672l-.814-.531-.007.009-.006.009.827.513zm0-9.864l-.828.513.007.009.007.009.814-.531zm-6.89.059l.814.531.005-.005.004-.007-.823-.519zm0 9.805l-.823.52.005.006.004.005.814-.531zM3.09 546.74l-.524.779.013.006.013.008.498-.793zm-3.965-4.041l.894-.409-.894.409zm0-12.123l.894.409-.894-.409zm3.965-3.981l.508.787.006-.004-.514-.783zm13.975 1.723l-.741.613.006.008.007.006.728-.627zm0 16.699l-.734-.621v.001l.734.62zm-4.68-3.447l-.823-.519-.005.005.828.514zm0-9.805l-.836.501.01.015.012.015.814-.531zm-6.89-.06l.814.531-.814-.531zm-27.43-4.123c-3.085 0-5.544-.942-7.462-2.803l-1.456 1.254c2.328 2.258 5.33 3.377 8.918 3.377v-1.828zm-7.449-2.789c-1.877-1.896-2.861-4.452-2.861-7.766h-2c0 3.659 1.096 6.689 3.379 8.993l1.482-1.227zm-2.861-7.766c0-3.315.984-5.847 2.855-7.7l-1.47-1.239c-2.29 2.267-3.385 5.281-3.385 8.939h2zm2.854-7.699c1.92-1.899 4.377-2.856 7.456-2.856v-1.828c-3.595 0-6.598 1.142-8.924 3.443l1.468 1.241zm7.456-2.856c3.079 0 5.51.956 7.384 2.849l1.482-1.227c-2.285-2.308-5.271-3.45-8.866-3.45v1.828zm7.39 2.855c1.87 1.853 2.855 4.385 2.855 7.7h2c0-3.658-1.096-6.672-3.385-8.939l-1.47 1.239zm2.855 7.7c0 3.314-.984 5.87-2.861 7.766l1.482 1.227c2.283-2.304 3.379-5.334 3.379-8.993h-2zm-2.855 7.759c-1.873 1.855-4.305 2.796-7.39 2.796v1.828c3.588 0 6.573-1.119 8.86-3.384l-1.47-1.24zM5.17 506.947h7.735v-1.828H5.17v1.828zm6.91-1.429l-31.07 41.598 1.65 1.031 31.07-41.598-1.65-1.031zm-30.245 41.199H-25.9v1.829h7.735v-1.829zm-6.91 1.43l31.07-41.598-1.65-1.031-31.07 41.598 1.65 1.031zm3.14-23.609c1.803 0 3.262-.704 4.272-2.065l-1.654-1.027c-.637.857-1.474 1.263-2.618 1.263v1.829zm4.259-2.048c1.04-1.332 1.486-3.198 1.486-5.463h-2c0 2.094-.421 3.514-1.114 4.401l1.628 1.062zm1.486-5.463c0-2.265-.445-4.131-1.486-5.464l-1.628 1.063c.693.887 1.114 2.307 1.114 4.401h2zm-1.473-5.446c-1.01-1.361-2.47-2.065-4.272-2.065v1.829c1.144 0 1.981.406 2.617 1.263l1.655-1.027zm-4.272-2.065c-1.784 0-3.23.743-4.268 2.119l1.646 1.038c.695-.921 1.546-1.328 2.622-1.328v-1.829zm-4.259 2.107c-1.039 1.329-1.486 3.175-1.486 5.404h2c0-2.05.42-3.453 1.114-4.342l-1.628-1.062zm-1.486 5.404c0 2.233.449 4.088 1.477 5.452l1.646-1.039c-.705-.934-1.123-2.367-1.123-4.413h-2zm1.486 5.463c1.045 1.338 2.49 2.048 4.259 2.048v-1.829c-1.091 0-1.943-.4-2.631-1.281l-1.628 1.062zM8.94 547.192c-2.007 0-3.782-.42-5.352-1.245l-.996 1.586c1.897.997 4.021 1.488 6.348 1.488v-1.829zm-5.326-1.231c-1.52-.855-2.718-2.068-3.595-3.671l-1.788.818c1.03 1.884 2.474 3.364 4.335 4.411l1.048-1.558zM.02 542.29c-.872-1.595-1.324-3.471-1.324-5.653h-2c0 2.415.501 4.58 1.536 6.471l1.788-.818zm-1.324-5.653c0-2.181.452-4.057 1.324-5.652l-1.788-.818c-1.035 1.891-1.536 4.056-1.536 6.47h2zm1.324-5.652c.875-1.6 2.07-2.789 3.579-3.603l-1.016-1.575c-1.87 1.009-3.32 2.473-4.351 4.36l1.788.818zm3.585-3.607c1.567-.859 3.337-1.295 5.336-1.295v-1.829c-2.334 0-4.465.515-6.364 1.557l1.028 1.567zm5.336-1.295c3.079 0 5.51.956 7.384 2.848l1.482-1.227c-2.285-2.307-5.271-3.45-8.866-3.45v1.829zm7.397 2.862c1.91 1.853 2.913 4.382 2.913 7.692h2c0-3.662-1.12-6.679-3.457-8.946l-1.456 1.254zm2.913 7.692c0 3.31-1.003 5.864-2.92 7.759l1.47 1.241c2.33-2.304 3.45-5.336 3.45-9h-2zm-2.92 7.76c-1.873 1.855-4.305 2.795-7.39 2.795v1.829c3.588 0 6.573-1.119 8.86-3.385l-1.47-1.239zm-7.39-.249c1.803 0 3.262-.703 4.273-2.064l-1.655-1.028c-.637.858-1.474 1.264-2.618 1.264v1.828zm4.268-2.059c1.028-1.363 1.477-3.219 1.477-5.452h-2c0 2.047-.418 3.479-1.123 4.414l1.646 1.038zm1.477-5.452c0-2.228-.447-4.074-1.486-5.404l-1.628 1.063c.694.888 1.114 2.292 1.114 4.341h2zm-1.463-5.373c-1.004-1.401-2.463-2.137-4.282-2.137v1.829c1.128 0 1.966.413 2.609 1.31l1.673-1.002zm-4.282-2.137c-1.769 0-3.214.709-4.259 2.047l1.628 1.062c.688-.881 1.54-1.28 2.631-1.28v-1.829zm-4.259 2.047c-1.04 1.332-1.486 3.199-1.486 5.463h2c0-2.093.421-3.514 1.114-4.401l-1.628-1.062zm-1.486 5.463c0 2.265.445 4.132 1.486 5.464l1.628-1.062c-.693-.887-1.114-2.308-1.114-4.402h-2zm1.486 5.464c1.045 1.338 2.49 2.047 4.259 2.047v-1.828c-1.091 0-1.943-.4-2.631-1.281l-1.628 1.062zm369.193-372.335l-.741.613.006.008.007.006.728-.627zm0-16.699l-.734-.621-.001.001.735.62zm16.315 0l-.741.614.006.006.735-.62zm0 16.699l.735.62.006-.007-.741-.613zm18.98-19.373v-.914h-.528l-.298.398.826.516zm7.735 0l.826.516 1.068-1.43h-1.894v.914zm-31.07 41.598v.914h.528l.298-.398-.826-.516zm-7.735 0l-.826-.516-1.068 1.43h1.894v-.914zm7.41-25.672l-.814-.531-.007.009-.006.008.827.514zm0-9.865l-.827.513.006.01.007.009.814-.532zm-6.89.06l.814.531.005-.005.004-.007-.823-.519zm0 9.805l-.823.519.004.007.005.005.814-.531zm28.47 24.781l-.524.779.013.006.013.007.498-.792zm-3.965-4.041l.894-.409-.894.409zm0-12.123l.894.409-.894-.409zm3.965-3.982l.508.788.006-.004-.514-.784zm13.975 1.724l-.741.613.006.007.007.007.728-.627zm0 16.698l-.734-.62h-.001l.735.62zm-4.68-3.446l-.823-.52-.004.006.827.514zm0-9.806l-.836.501.011.016.011.015.814-.532zm-6.89-.059l.814.531-.814-.531zm-27.43-4.123c-3.085 0-5.544-.942-7.462-2.803l-1.456 1.254c2.328 2.258 5.33 3.377 8.918 3.377v-1.828zm-7.449-2.79c-1.877-1.895-2.861-4.451-2.861-7.765h-2c0 3.659 1.096 6.688 3.379 8.992l1.482-1.227zm-2.861-7.765c0-3.315.984-5.847 2.855-7.7l-1.47-1.24c-2.289 2.268-3.385 5.282-3.385 8.94h2zm2.854-7.699c1.921-1.899 4.377-2.856 7.456-2.856v-1.829c-3.595 0-6.598 1.143-8.924 3.443l1.468 1.242zm7.456-2.856c3.079 0 5.509.956 7.384 2.849l1.482-1.227c-2.285-2.308-5.271-3.451-8.866-3.451v1.829zm7.39 2.855c1.871 1.853 2.855 4.385 2.855 7.7h2c0-3.658-1.096-6.672-3.385-8.94l-1.47 1.24zm2.855 7.7c0 3.314-.984 5.87-2.861 7.765l1.482 1.227c2.283-2.304 3.379-5.333 3.379-8.992h-2zm-2.855 7.759c-1.873 1.855-4.305 2.796-7.39 2.796v1.828c3.588 0 6.573-1.119 8.86-3.384l-1.47-1.24zm19.715-17.839h7.735v-1.828h-7.735v1.828zm6.909-1.43l-31.07 41.598 1.652 1.032 31.07-41.598-1.652-1.032zm-30.244 41.2H378.1v1.828h7.735v-1.828zm-6.909 1.43l31.07-41.598-1.652-1.032-31.07 41.598 1.652 1.032zm3.139-23.61c1.803 0 3.262-.703 4.272-2.064l-1.654-1.028c-.637.858-1.474 1.264-2.618 1.264v1.828zm4.259-2.047c1.041-1.332 1.486-3.199 1.486-5.463h-2c0 2.093-.421 3.514-1.114 4.401l1.628 1.062zm1.486-5.463c0-2.265-.445-4.132-1.486-5.464l-1.628 1.063c.693.886 1.114 2.307 1.114 4.401h2zm-1.473-5.446c-1.01-1.362-2.469-2.065-4.272-2.065v1.829c1.144 0 1.981.406 2.618 1.262l1.654-1.026zm-4.272-2.065c-1.784 0-3.23.743-4.268 2.119l1.646 1.038c.695-.921 1.546-1.328 2.622-1.328v-1.829zm-4.259 2.107c-1.039 1.329-1.486 3.175-1.486 5.404h2c0-2.05.419-3.453 1.114-4.342l-1.628-1.062zm-1.486 5.404c0 2.232.449 4.088 1.477 5.451l1.646-1.038c-.705-.934-1.123-2.367-1.123-4.413h-2zm1.486 5.463c1.045 1.338 2.49 2.047 4.259 2.047v-1.828c-1.091 0-1.943-.4-2.631-1.281l-1.628 1.062zm35.134 24.702c-2.007 0-3.782-.42-5.352-1.245l-.996 1.585c1.897.998 4.021 1.489 6.348 1.489v-1.829zm-5.326-1.231c-1.519-.855-2.718-2.068-3.595-3.671l-1.788.817c1.03 1.885 2.474 3.365 4.335 4.412l1.048-1.558zm-3.595-3.671c-.872-1.595-1.324-3.471-1.324-5.653h-2c0 2.415.501 4.58 1.536 6.47l1.788-.817zm-1.324-5.653c0-2.181.452-4.057 1.324-5.652l-1.788-.818c-1.035 1.891-1.536 4.056-1.536 6.47h2zm1.324-5.652c.875-1.6 2.069-2.789 3.579-3.603l-1.016-1.575c-1.87 1.009-3.32 2.473-4.351 4.36l1.788.818zm3.585-3.607c1.567-.86 3.337-1.296 5.336-1.296v-1.828c-2.334 0-4.465.515-6.364 1.557l1.028 1.567zm5.336-1.296c3.079 0 5.509.957 7.384 2.849l1.482-1.227c-2.285-2.307-5.271-3.45-8.866-3.45v1.828zm7.397 2.863c1.91 1.853 2.913 4.382 2.913 7.692h2c0-3.662-1.121-6.679-3.457-8.946l-1.456 1.254zm2.913 7.692c0 3.31-1.002 5.863-2.919 7.759l1.468 1.241c2.33-2.304 3.451-5.336 3.451-9h-2zm-2.92 7.759c-1.873 1.855-4.305 2.796-7.39 2.796v1.829c3.588 0 6.573-1.119 8.86-3.385l-1.47-1.24zm-7.39-.248c1.803 0 3.262-.703 4.272-2.065l-1.654-1.027c-.637.857-1.474 1.263-2.618 1.263v1.829zm4.268-2.059c1.028-1.363 1.477-3.219 1.477-5.452h-2c0 2.046-.418 3.479-1.123 4.413l1.646 1.039zm1.477-5.452c0-2.229-.447-4.074-1.486-5.404l-1.628 1.063c.695.888 1.114 2.292 1.114 4.341h2zm-1.464-5.374c-1.003-1.4-2.463-2.136-4.281-2.136v1.828c1.128 0 1.966.414 2.609 1.31l1.672-1.002zm-4.281-2.136c-1.769 0-3.214.709-4.259 2.047l1.628 1.062c.688-.881 1.54-1.281 2.631-1.281v-1.828zm-4.259 2.047c-1.041 1.332-1.486 3.199-1.486 5.463h2c0-2.093.421-3.514 1.114-4.401l-1.628-1.062zm-1.486 5.463c0 2.265.445 4.132 1.486 5.464l1.628-1.063c-.693-.886-1.114-2.307-1.114-4.401h-2zm1.486 5.464c1.045 1.337 2.49 2.047 4.259 2.047v-1.829c-1.091 0-1.943-.399-2.631-1.281l-1.628 1.063zm317.194-131.89l-.741.614.006.006.007.007.728-.627zm0-16.699l-.734-.62h-.001l.735.62zm16.315 0l-.741.614.006.007.735-.62zm0 16.699l.735.62.006-.006-.741-.614zm18.98-19.373v-.914h-.528l-.298.399.826.515zm7.735 0l.826.516 1.068-1.43h-1.894v.914zm-31.07 41.598v.914h.528l.298-.398-.826-.516zm-7.735 0l-.826-.515-1.068 1.43h1.894v-.915zm7.41-25.672l-.814-.531-.007.009-.006.009.827.513zm0-9.864l-.827.513.006.01.007.008.814-.531zm-6.89.06l.814.53.005-.006.004-.006-.823-.519zm0 9.804l-.823.52.004.006.005.006.814-.532zm28.47 24.78l-.524.78.013.007.013.006.498-.792zm-3.965-4.04l.894-.409-.894.409zm0-12.123l.894.409-.894-.409zm3.965-3.981l.508.787.006-.003-.514-.784zm13.975 1.723l-.741.614.006.006.007.007.728-.627zm0 16.699l-.734-.621h-.001l.735.62zm-4.68-3.447l-.823-.52-.004.007.827.513zm0-9.805l-.836.5.011.016.011.015.814-.531zm-6.89-.06l.814.532-.814-.532zm-27.43-4.123c-3.085 0-5.544-.941-7.462-2.803l-1.456 1.254c2.328 2.259 5.33 3.377 8.918 3.377v-1.828zm-7.449-2.79c-1.877-1.895-2.861-4.45-2.861-7.765h-2c0 3.658 1.096 6.688 3.379 8.993l1.482-1.228zm-2.861-7.765c0-3.315.984-5.847 2.855-7.7l-1.47-1.24c-2.289 2.268-3.385 5.282-3.385 8.94h2zm2.854-7.699c1.921-1.899 4.377-2.856 7.456-2.856V33.81c-3.595 0-6.598 1.142-8.924 3.443l1.468 1.241zm7.456-2.856c3.079 0 5.509.957 7.384 2.85l1.482-1.228c-2.285-2.307-5.271-3.45-8.866-3.45v1.828zm7.39 2.855c1.871 1.853 2.855 4.385 2.855 7.7h2c0-3.658-1.096-6.672-3.385-8.94l-1.47 1.24zm2.855 7.7c0 3.314-.984 5.87-2.861 7.765l1.482 1.228c2.283-2.305 3.379-5.335 3.379-8.993h-2zm-2.855 7.759c-1.873 1.855-4.305 2.796-7.39 2.796v1.828c3.588 0 6.573-1.119 8.86-3.384l-1.47-1.24zm19.715-17.839h7.735v-1.828h-7.735v1.828zm6.909-1.43l-31.07 41.599 1.652 1.03 31.07-41.597-1.652-1.031zm-30.244 41.2H730.1v1.828h7.735v-1.828zm-6.909 1.43l31.07-41.598-1.652-1.031-31.07 41.598 1.652 1.03zm3.139-23.61c1.803 0 3.262-.703 4.272-2.064l-1.654-1.027c-.637.857-1.474 1.263-2.618 1.263v1.828zm4.259-2.046c1.041-1.332 1.486-3.2 1.486-5.464h-2c0 2.093-.421 3.514-1.114 4.401l1.628 1.063zm1.486-5.464c0-2.264-.445-4.132-1.486-5.464l-1.628 1.063c.693.887 1.114 2.308 1.114 4.401h2zm-1.473-5.446c-1.01-1.361-2.469-2.065-4.272-2.065v1.829c1.144 0 1.981.406 2.618 1.263l1.654-1.027zm-4.272-2.065c-1.784 0-3.23.742-4.268 2.12l1.646 1.037c.695-.921 1.546-1.328 2.622-1.328v-1.828zm-4.259 2.107c-1.039 1.33-1.486 3.175-1.486 5.404h2c0-2.05.419-3.453 1.114-4.342l-1.628-1.062zm-1.486 5.404c0 2.233.449 4.088 1.477 5.451l1.646-1.038c-.705-.934-1.123-2.367-1.123-4.413h-2zm1.486 5.464c1.045 1.337 2.49 2.047 4.259 2.047v-1.829c-1.091 0-1.943-.4-2.631-1.281l-1.628 1.063zm35.134 24.701c-2.007 0-3.782-.42-5.352-1.245l-.996 1.585c1.897.998 4.021 1.489 6.348 1.489v-1.829zm-5.326-1.23c-1.519-.856-2.718-2.07-3.595-3.672l-1.788.818c1.03 1.884 2.474 3.364 4.335 4.41l1.048-1.557zm-3.595-3.672c-.872-1.595-1.324-3.471-1.324-5.653h-2c0 2.415.501 4.58 1.536 6.47l1.788-.817zm-1.324-5.653c0-2.18.452-4.057 1.324-5.652l-1.788-.818c-1.035 1.891-1.536 4.056-1.536 6.47h2zm1.324-5.652c.875-1.6 2.069-2.79 3.579-3.603l-1.016-1.575c-1.87 1.008-3.32 2.474-4.351 4.36l1.788.818zm3.585-3.606c1.567-.86 3.337-1.296 5.336-1.296v-1.829c-2.334 0-4.465.514-6.364 1.557l1.028 1.568zm5.336-1.296c3.079 0 5.509.956 7.384 2.849l1.482-1.228c-2.285-2.307-5.271-3.45-8.866-3.45v1.829zm7.397 2.862c1.91 1.853 2.913 4.383 2.913 7.692h2c0-3.662-1.121-6.68-3.457-8.946l-1.456 1.254zm2.913 7.692c0 3.31-1.002 5.863-2.919 7.759l1.468 1.241c2.33-2.304 3.451-5.336 3.451-9h-2zm-2.92 7.76c-1.873 1.854-4.305 2.795-7.39 2.795v1.829c3.588 0 6.573-1.12 8.86-3.384l-1.47-1.24zm-7.39-.249c1.803 0 3.262-.703 4.272-2.065l-1.654-1.026c-.637.857-1.474 1.263-2.618 1.263v1.828zm4.268-2.06c1.028-1.362 1.477-3.218 1.477-5.45h-2c0 2.046-.418 3.478-1.123 4.413l1.646 1.038zm1.477-5.45c0-2.23-.447-4.075-1.486-5.405l-1.628 1.063c.695.889 1.114 2.292 1.114 4.341h2zm-1.464-5.374c-1.003-1.401-2.463-2.137-4.281-2.137v1.828c1.128 0 1.966.413 2.609 1.31l1.672-1.001zm-4.281-2.137c-1.769 0-3.214.71-4.259 2.047l1.628 1.063c.688-.882 1.54-1.282 2.631-1.282v-1.828zm-4.259 2.047c-1.041 1.332-1.486 3.199-1.486 5.463h2c0-2.093.421-3.514 1.114-4.4l-1.628-1.063zm-1.486 5.463c0 2.265.445 4.132 1.486 5.464l1.628-1.063c-.693-.886-1.114-2.307-1.114-4.4h-2zm1.486 5.464c1.045 1.338 2.49 2.047 4.259 2.047v-1.829c-1.091 0-1.943-.4-2.631-1.28l-1.628 1.062zM613.875 566.547l-.741.613.006.007.007.007.728-.627zm0-16.699l-.734-.621-.001.001.735.62zm16.315 0l-.741.613.006.007.735-.62zm0 16.699l.735.619.006-.006-.741-.613zm18.98-19.373v-.914h-.528l-.298.398.826.516zm7.735 0l.826.516 1.068-1.43h-1.894v.914zm-31.07 41.598v.914h.528l.298-.399-.826-.515zm-7.735 0l-.826-.516-1.068 1.43h1.894v-.914zm7.41-25.672l-.814-.531-.007.009-.006.008.827.514zm0-9.865l-.827.513.006.009.007.009.814-.531zm-6.89.06l.814.531.005-.006.004-.006-.823-.519zm0 9.805l-.823.519.004.007.005.005.814-.531zm28.47 24.78l-.524.779.013.007.013.007.498-.793zm-3.965-4.041l.894-.408-.894.408zm0-12.122l.894.408-.894-.408zm3.965-3.982l.508.787.006-.003-.514-.784zm13.975 1.723l-.741.614.006.007.007.007.728-.628zm0 16.699l-.734-.621-.001.001.735.62zm-4.68-3.447l-.823-.519-.004.006.827.513zm0-9.805l-.836.501.011.016.011.014.814-.531zm-6.89-.059l.814.531-.814-.531zm-27.43-4.123c-3.085 0-5.544-.942-7.462-2.804l-1.456 1.255c2.328 2.258 5.33 3.377 8.918 3.377v-1.828zm-7.449-2.79c-1.877-1.895-2.861-4.451-2.861-7.765h-2c0 3.658 1.096 6.688 3.379 8.992l1.482-1.227zm-2.861-7.765c0-3.315.984-5.847 2.855-7.7l-1.47-1.24c-2.289 2.267-3.385 5.282-3.385 8.94h2zm2.854-7.699c1.921-1.899 4.377-2.856 7.456-2.856v-1.829c-3.595 0-6.598 1.143-8.924 3.443l1.468 1.242zm7.456-2.856c3.079 0 5.509.956 7.384 2.848l1.482-1.226c-2.285-2.308-5.271-3.451-8.866-3.451v1.829zm7.39 2.855c1.871 1.853 2.855 4.385 2.855 7.7h2c0-3.658-1.096-6.673-3.385-8.94l-1.47 1.24zm2.855 7.7c0 3.314-.984 5.87-2.861 7.765l1.482 1.227c2.283-2.304 3.379-5.334 3.379-8.992h-2zm-2.855 7.759c-1.873 1.855-4.305 2.796-7.39 2.796v1.828c3.588 0 6.573-1.119 8.86-3.385l-1.47-1.239zm19.715-17.839h7.735v-1.828h-7.735v1.828zm6.909-1.43l-31.07 41.598 1.652 1.031 31.07-41.597-1.652-1.032zm-30.244 41.2H618.1v1.828h7.735v-1.828zm-6.909 1.429l31.07-41.597-1.652-1.032-31.07 41.598 1.652 1.031zm3.139-23.609c1.803 0 3.262-.703 4.272-2.064l-1.654-1.028c-.637.858-1.474 1.264-2.618 1.264v1.828zm4.259-2.047c1.041-1.332 1.486-3.199 1.486-5.463h-2c0 2.093-.421 3.514-1.114 4.401l1.628 1.062zm1.486-5.463c0-2.265-.445-4.132-1.486-5.464l-1.628 1.062c.693.887 1.114 2.308 1.114 4.402h2zm-1.473-5.447c-1.01-1.361-2.469-2.064-4.272-2.064v1.829c1.144 0 1.981.405 2.618 1.262l1.654-1.027zm-4.272-2.064c-1.784 0-3.23.742-4.268 2.118l1.646 1.039c.695-.922 1.546-1.328 2.622-1.328v-1.829zm-4.259 2.107c-1.039 1.329-1.486 3.175-1.486 5.404h2c0-2.05.419-3.453 1.114-4.342l-1.628-1.062zm-1.486 5.404c0 2.232.449 4.088 1.477 5.451l1.646-1.038c-.705-.935-1.123-2.367-1.123-4.413h-2zm1.486 5.463c1.045 1.338 2.49 2.047 4.259 2.047v-1.828c-1.091 0-1.943-.4-2.631-1.281l-1.628 1.062zm35.134 24.702c-2.007 0-3.782-.421-5.352-1.245l-.996 1.585c1.897.998 4.021 1.488 6.348 1.488v-1.828zm-5.326-1.232c-1.519-.854-2.718-2.067-3.595-3.67l-1.788.817c1.03 1.884 2.474 3.365 4.335 4.411l1.048-1.558zm-3.595-3.67c-.872-1.595-1.324-3.472-1.324-5.653h-2c0 2.415.501 4.58 1.536 6.47l1.788-.817zm-1.324-5.653c0-2.181.452-4.057 1.324-5.653l-1.788-.817c-1.035 1.891-1.536 4.056-1.536 6.47h2zm1.324-5.653c.875-1.6 2.069-2.788 3.579-3.603l-1.016-1.574c-1.87 1.008-3.32 2.473-4.351 4.36l1.788.817zm3.585-3.606c1.567-.86 3.337-1.296 5.336-1.296v-1.828c-2.334 0-4.465.514-6.364 1.557l1.028 1.567zm5.336-1.296c3.079 0 5.509.956 7.384 2.849l1.482-1.227c-2.285-2.308-5.271-3.45-8.866-3.45v1.828zm7.397 2.863c1.91 1.853 2.913 4.382 2.913 7.692h2c0-3.662-1.121-6.679-3.457-8.947l-1.456 1.255zm2.913 7.692c0 3.31-1.002 5.863-2.919 7.758l1.468 1.242c2.33-2.304 3.451-5.337 3.451-9h-2zm-2.92 7.759c-1.873 1.855-4.305 2.796-7.39 2.796v1.828c3.588 0 6.573-1.119 8.86-3.384l-1.47-1.24zm-7.39-.248c1.803 0 3.262-.703 4.272-2.065l-1.654-1.027c-.637.857-1.474 1.263-2.618 1.263v1.829zm4.268-2.059c1.028-1.363 1.477-3.219 1.477-5.452h-2c0 2.046-.418 3.479-1.123 4.413l1.646 1.039zm1.477-5.452c0-2.229-.447-4.075-1.486-5.404l-1.628 1.062c.695.889 1.114 2.292 1.114 4.342h2zm-1.464-5.374c-1.003-1.4-2.463-2.136-4.281-2.136v1.828c1.128 0 1.966.413 2.609 1.31l1.672-1.002zm-4.281-2.136c-1.769 0-3.214.709-4.259 2.047l1.628 1.062c.688-.881 1.54-1.281 2.631-1.281v-1.828zm-4.259 2.047c-1.041 1.332-1.486 3.198-1.486 5.463h2c0-2.094.421-3.514 1.114-4.401l-1.628-1.062zm-1.486 5.463c0 2.265.445 4.132 1.486 5.464l1.628-1.063c-.693-.887-1.114-2.307-1.114-4.401h-2zm1.486 5.464c1.045 1.337 2.49 2.047 4.259 2.047v-1.829c-1.091 0-1.943-.399-2.631-1.281l-1.628 1.063zm226.194-13.038l-.741.613.006.008.007.006.728-.627zm0-16.699l-.734-.621-.001.001.735.62zm16.315 0l-.741.614.006.006.735-.62zm0 16.699l.735.62.006-.007-.741-.613zm18.98-19.373v-.914h-.528l-.298.398.826.516zm7.735 0l.826.516 1.068-1.43h-1.894v.914zm-31.07 41.598v.914h.528l.298-.398-.826-.516zm-7.735 0l-.826-.516-1.068 1.43h1.894v-.914zm7.41-25.672l-.814-.531-.007.009-.006.008.827.514zm0-9.864l-.827.512.006.01.007.009.814-.531zm-6.89.059l.814.531.005-.005.004-.007-.823-.519zm0 9.805l-.823.519.004.007.005.005.814-.531zm28.47 24.781l-.524.779.013.006.013.007.498-.792zm-3.965-4.041l.894-.409-.894.409zm0-12.123l.894.409-.894-.409zm3.965-3.982l.508.788.006-.004-.514-.784zm13.975 1.724l-.741.613.006.008.007.006.728-.627zm0 16.698l-.734-.62-.001.001.735.619zm-4.68-3.446l-.823-.52-.004.006.827.514zm0-9.806l-.836.501.011.016.011.015.814-.532zm-6.89-.059l.814.531-.814-.531zm-27.43-4.123c-3.085 0-5.544-.942-7.462-2.803l-1.456 1.254c2.328 2.258 5.33 3.377 8.918 3.377v-1.828zm-7.449-2.79c-1.877-1.895-2.861-4.451-2.861-7.765h-2c0 3.659 1.096 6.688 3.379 8.992l1.482-1.227zm-2.861-7.765c0-3.315.984-5.847 2.855-7.7l-1.47-1.24c-2.289 2.268-3.385 5.282-3.385 8.94h2zm2.854-7.699c1.921-1.899 4.377-2.856 7.456-2.856v-1.829c-3.595 0-6.598 1.143-8.924 3.443l1.468 1.242zm7.456-2.856c3.079 0 5.509.956 7.384 2.849l1.482-1.227c-2.285-2.308-5.271-3.451-8.866-3.451v1.829zm7.39 2.855c1.871 1.853 2.855 4.385 2.855 7.7h2c0-3.658-1.096-6.672-3.385-8.94l-1.47 1.24zm2.855 7.7c0 3.314-.984 5.87-2.861 7.765l1.482 1.227c2.283-2.304 3.379-5.333 3.379-8.992h-2zm-2.855 7.759c-1.873 1.855-4.305 2.796-7.39 2.796v1.828c3.588 0 6.573-1.119 8.86-3.384l-1.47-1.24zm19.715-17.839h7.735v-1.828h-7.735v1.828zm6.909-1.43l-31.07 41.598 1.652 1.032 31.07-41.598-1.652-1.032zm-30.244 41.2H879.1v1.828h7.735v-1.828zm-6.909 1.43l31.07-41.598-1.652-1.032-31.07 41.598 1.652 1.032zm3.139-23.61c1.803 0 3.262-.703 4.272-2.064l-1.654-1.028c-.637.858-1.474 1.264-2.618 1.264v1.828zm4.259-2.047c1.041-1.332 1.486-3.199 1.486-5.463h-2c0 2.093-.421 3.514-1.114 4.401l1.628 1.062zm1.486-5.463c0-2.265-.445-4.132-1.486-5.464l-1.628 1.063c.693.886 1.114 2.307 1.114 4.401h2zm-1.473-5.446c-1.01-1.362-2.469-2.065-4.272-2.065v1.829c1.144 0 1.981.406 2.618 1.262l1.654-1.026zm-4.272-2.065c-1.784 0-3.23.743-4.268 2.119l1.646 1.038c.695-.921 1.546-1.328 2.622-1.328v-1.829zm-4.259 2.107c-1.039 1.329-1.486 3.175-1.486 5.404h2c0-2.05.419-3.453 1.114-4.342l-1.628-1.062zm-1.486 5.404c0 2.232.449 4.088 1.477 5.451l1.646-1.038c-.705-.934-1.123-2.367-1.123-4.413h-2zm1.486 5.463c1.045 1.338 2.49 2.047 4.259 2.047v-1.828c-1.091 0-1.943-.4-2.631-1.281l-1.628 1.062zm35.134 24.702c-2.007 0-3.782-.42-5.352-1.245l-.996 1.585c1.897.998 4.021 1.489 6.348 1.489v-1.829zm-5.326-1.231c-1.519-.855-2.718-2.068-3.595-3.671l-1.788.817c1.03 1.885 2.474 3.365 4.335 4.412l1.048-1.558zm-3.595-3.671c-.872-1.595-1.324-3.471-1.324-5.653h-2c0 2.415.501 4.58 1.536 6.47l1.788-.817zm-1.324-5.653c0-2.181.452-4.057 1.324-5.652l-1.788-.818c-1.035 1.891-1.536 4.056-1.536 6.47h2zm1.324-5.652c.875-1.6 2.069-2.789 3.579-3.603l-1.016-1.575c-1.87 1.009-3.32 2.473-4.351 4.36l1.788.818zm3.585-3.607c1.567-.86 3.337-1.296 5.336-1.296v-1.828c-2.334 0-4.465.515-6.364 1.557l1.028 1.567zm5.336-1.296c3.079 0 5.509.957 7.384 2.849l1.482-1.227c-2.285-2.307-5.271-3.45-8.866-3.45v1.828zm7.397 2.863c1.91 1.853 2.913 4.382 2.913 7.692h2c0-3.662-1.121-6.679-3.457-8.946l-1.456 1.254zm2.913 7.692c0 3.31-1.002 5.863-2.919 7.759l1.468 1.241c2.33-2.304 3.451-5.336 3.451-9h-2zm-2.92 7.76c-1.873 1.855-4.305 2.795-7.39 2.795v1.829c3.588 0 6.573-1.119 8.86-3.385l-1.47-1.239zm-7.39-.249c1.803 0 3.262-.703 4.272-2.064l-1.654-1.028c-.637.857-1.474 1.263-2.618 1.263v1.829zm4.268-2.059c1.028-1.363 1.477-3.219 1.477-5.452h-2c0 2.046-.418 3.479-1.123 4.413l1.646 1.039zm1.477-5.452c0-2.229-.447-4.074-1.486-5.404l-1.628 1.063c.695.888 1.114 2.292 1.114 4.341h2zm-1.464-5.374c-1.003-1.4-2.463-2.136-4.281-2.136v1.828c1.128 0 1.966.414 2.609 1.31l1.672-1.002zm-4.281-2.136c-1.769 0-3.214.709-4.259 2.047l1.628 1.062c.688-.881 1.54-1.281 2.631-1.281v-1.828zm-4.259 2.047c-1.041 1.332-1.486 3.199-1.486 5.463h2c0-2.093.421-3.514 1.114-4.401l-1.628-1.062zm-1.486 5.463c0 2.265.445 4.132 1.486 5.464l1.628-1.062c-.693-.887-1.114-2.308-1.114-4.402h-2zm1.486 5.464c1.045 1.337 2.49 2.047 4.259 2.047v-1.829c-1.091 0-1.943-.399-2.631-1.28l-1.628 1.062zm259.199-20.352l-.75.613.01.007.01.007.73-.627zm0-16.699l-.74-.621v.001l.74.62zm16.31 0l-.74.613.01.007.73-.62zm0 16.699l.73.619.01-.006-.74-.613zm18.98-19.373v-.914h-.53l-.3.398.83.516zm7.74 0l.82.516 1.07-1.43h-1.89v.914zm-31.07 41.598v.914h.52l.3-.399-.82-.515zm-7.74 0l-.83-.516-1.06 1.43h1.89v-.914zm7.41-25.672l-.81-.531-.01.009-.01.008.83.514zm0-9.865l-.83.513.01.009.01.009.81-.531zm-6.89.06l.81.531.01-.006v-.006l-.82-.519zm0 9.805l-.82.519v.007l.01.005.81-.531zm28.47 24.78l-.52.779.01.007.01.007.5-.793zm-3.96-4.041l.89-.408-.89.408zm0-12.122l.89.408-.89-.408zm3.96-3.982l.51.787v-.003l-.51-.784zm13.98 1.723l-.75.614.01.007.01.007.73-.628zm0 16.699l-.74-.621v.001l.74.62zm-4.68-3.447l-.83-.519v.006l.83.513zm0-9.805l-.84.501.01.016.01.014.82-.531zm-6.89-.059l.81.531-.81-.531zm-27.43-4.123c-3.09 0-5.55-.942-7.47-2.804l-1.45 1.255c2.33 2.258 5.33 3.377 8.92 3.377v-1.828zm-7.45-2.79c-1.88-1.895-2.86-4.451-2.86-7.765h-2c0 3.658 1.09 6.688 3.37 8.992l1.49-1.227zm-2.86-7.765c0-3.315.98-5.847 2.85-7.7l-1.47-1.24c-2.29 2.267-3.38 5.282-3.38 8.94h2zm2.85-7.699c1.92-1.899 4.38-2.856 7.46-2.856v-1.829c-3.6 0-6.6 1.143-8.93 3.443l1.47 1.242zm7.46-2.856c3.07 0 5.5.956 7.38 2.848l1.48-1.226c-2.28-2.308-5.27-3.451-8.86-3.451v1.829zm7.39 2.855c1.87 1.853 2.85 4.385 2.85 7.7h2c0-3.658-1.1-6.673-3.39-8.94l-1.46 1.24zm2.85 7.7c0 3.314-.98 5.87-2.86 7.765l1.48 1.227c2.28-2.304 3.38-5.334 3.38-8.992h-2zm-2.85 7.759c-1.88 1.855-4.31 2.796-7.39 2.796v1.828c3.58 0 6.57-1.119 8.85-3.385l-1.46-1.239zm19.71-17.839h7.74v-1.828h-7.74v1.828zm6.91-1.43l-31.07 41.598 1.65 1.031 31.07-41.597-1.65-1.032zm-30.24 41.2h-7.74v1.828h7.74v-1.828zm-6.91 1.429L1205 547.69l-1.66-1.032-31.07 41.598 1.66 1.031zm3.14-23.609c1.8 0 3.26-.703 4.27-2.064l-1.66-1.028c-.63.858-1.47 1.264-2.61 1.264v1.828zm4.25-2.047c1.04-1.332 1.49-3.199 1.49-5.463h-2c0 2.093-.42 3.514-1.11 4.401l1.62 1.062zm1.49-5.463c0-2.265-.45-4.132-1.49-5.464l-1.62 1.062c.69.887 1.11 2.308 1.11 4.402h2zm-1.47-5.447c-1.01-1.361-2.47-2.064-4.27-2.064v1.829c1.14 0 1.98.405 2.61 1.262l1.66-1.027zm-4.27-2.064c-1.79 0-3.23.742-4.27 2.118l1.64 1.039c.7-.922 1.55-1.328 2.63-1.328v-1.829zm-4.26 2.107c-1.04 1.329-1.49 3.175-1.49 5.404h2c0-2.05.42-3.453 1.11-4.342l-1.62-1.062zm-1.49 5.404c0 2.232.45 4.088 1.48 5.451l1.64-1.038c-.7-.935-1.12-2.367-1.12-4.413h-2zm1.49 5.463c1.04 1.338 2.49 2.047 4.26 2.047v-1.828c-1.1 0-1.95-.4-2.64-1.281l-1.62 1.062zm35.13 24.702c-2.01 0-3.78-.421-5.35-1.245l-1 1.585c1.9.998 4.02 1.488 6.35 1.488v-1.828zm-5.33-1.232c-1.52-.854-2.71-2.067-3.59-3.67l-1.79.817c1.03 1.884 2.48 3.365 4.34 4.411l1.04-1.558zm-3.59-3.67c-.87-1.595-1.32-3.472-1.32-5.653h-2c0 2.415.5 4.58 1.53 6.47l1.79-.817zm-1.32-5.653c0-2.181.45-4.057 1.32-5.653l-1.79-.817c-1.03 1.891-1.53 4.056-1.53 6.47h2zm1.32-5.653c.87-1.6 2.07-2.788 3.58-3.603l-1.02-1.574c-1.87 1.008-3.32 2.473-4.35 4.36l1.79.817zm3.58-3.606c1.57-.86 3.34-1.296 5.34-1.296v-1.828c-2.33 0-4.46.514-6.36 1.557l1.02 1.567zm5.34-1.296c3.08 0 5.51.956 7.38 2.849l1.49-1.227c-2.29-2.308-5.28-3.45-8.87-3.45v1.828zm7.4 2.863c1.91 1.853 2.91 4.382 2.91 7.692h2c0-3.662-1.12-6.679-3.46-8.947l-1.45 1.255zm2.91 7.692c0 3.31-1 5.863-2.92 7.758l1.47 1.242c2.33-2.304 3.45-5.337 3.45-9h-2zm-2.92 7.759c-1.87 1.855-4.3 2.796-7.39 2.796v1.828c3.59 0 6.57-1.119 8.86-3.384l-1.47-1.24zm-7.39-.248c1.8 0 3.26-.703 4.27-2.065l-1.65-1.027c-.64.857-1.48 1.263-2.62 1.263v1.829zm4.27-2.059c1.03-1.363 1.48-3.219 1.48-5.452h-2c0 2.046-.42 3.479-1.13 4.413l1.65 1.039zm1.48-5.452c0-2.229-.45-4.075-1.49-5.404l-1.63 1.062c.7.889 1.12 2.292 1.12 4.342h2zm-1.47-5.374c-1-1.4-2.46-2.136-4.28-2.136v1.828c1.13 0 1.97.413 2.61 1.31l1.67-1.002zm-4.28-2.136c-1.77 0-3.21.709-4.26 2.047l1.63 1.062c.69-.881 1.54-1.281 2.63-1.281v-1.828zm-4.26 2.047c-1.04 1.332-1.48 3.198-1.48 5.463h2c0-2.094.42-3.514 1.11-4.401l-1.63-1.062zm-1.48 5.463c0 2.265.44 4.132 1.48 5.464l1.63-1.063c-.69-.887-1.11-2.307-1.11-4.401h-2zm1.48 5.464c1.05 1.337 2.49 2.047 4.26 2.047v-1.829c-1.09 0-1.94-.399-2.63-1.281l-1.63 1.063z"/></svg>